<svg width="338" height="373" viewBox="0 0 338 373" fill="none" xmlns="http://www.w3.org/2000/svg">
<path d="M288.717 93.2367C304.759 69.969 320.789 46.7014 336.819 23.4338C339.196 19.9858 337.733 14.9728 334.662 12.5886C331.529 10.1677 326.445 10.1065 323.654 13.2488C283.573 58.2802 243.503 103.312 203.422 148.355L83.8121 282.765C74.8279 292.864 65.8438 302.951 56.8596 313.05C72.4631 282.691 88.9686 252.809 106.352 223.44C134.292 176.232 164.475 130.37 196.791 86.0595C201.264 79.9217 205.775 73.8205 210.334 67.7437C212.528 64.8215 214.735 61.8993 216.941 58.9893C218.136 57.4243 219.33 55.8593 220.525 54.2942C221.037 53.6218 221.549 52.9493 222.061 52.289C222.183 52.1301 223.158 50.8707 223.438 50.5039C232.849 38.3138 242.431 26.2337 252.158 14.3003C254.926 10.9013 255.718 5.69264 252.158 2.40363C248.831 -0.665304 243.589 -0.934294 240.297 2.40363C207.774 35.4405 175.848 69.0642 144.556 103.275C113.264 137.486 82.5931 172.271 52.5687 207.606C35.6365 227.536 18.9116 247.649 2.38174 267.933C-0.385425 271.333 -1.17779 276.541 2.38174 279.83C5.45367 282.655 11.2684 283.474 14.2428 279.83C43.5358 243.883 73.4748 208.462 104.048 173.616C120.297 155.104 136.73 136.764 153.333 118.571C149.273 124.488 145.251 130.431 141.277 136.397C110.838 182.028 82.5809 229.113 56.628 277.446C41.9876 304.712 28.0908 332.381 14.9498 360.393C13.1457 364.232 13.6211 368.536 17.1075 371.238C20.2404 373.659 25.3237 373.72 28.1152 370.578C68.1965 325.546 108.278 280.503 148.347 235.471L246.015 125.723C242.821 130.357 239.639 134.979 236.445 139.613C207.811 181.16 179.176 222.706 150.541 264.265C134.499 287.533 118.469 310.801 102.439 334.068C100.062 337.516 101.524 342.529 104.596 344.913C107.876 347.457 112.617 347.224 115.604 344.253C138.729 321.279 161.866 298.317 184.991 275.343C208.115 252.369 231.252 229.407 254.377 206.433L255.681 205.137C248.928 218.256 242.175 231.375 235.409 244.495C231.143 252.772 226.876 261.062 222.609 269.34C220.671 273.093 221.366 277.556 224.767 280.185C228.327 282.948 232.435 282.153 235.775 279.525C251.512 267.151 267.25 254.777 282.987 242.404C283.061 246.292 283.121 250.18 283.195 254.068C283.268 258.47 286.998 262.688 291.581 262.48C296.055 262.285 300.054 258.788 299.968 254.068C299.798 244.519 299.627 234.982 299.456 225.433C299.395 222.058 297.396 219.063 294.3 217.755C290.948 216.336 287.888 217.339 285.145 219.491C275.052 227.426 264.958 235.361 254.865 243.309C263.873 225.824 272.87 208.34 281.878 190.856C286.145 182.566 290.411 174.288 294.678 166.011C296.616 162.257 295.921 157.794 292.52 155.165C289.241 152.622 284.499 152.855 281.512 155.826C258.388 178.8 235.251 201.762 212.126 224.736C197.327 239.433 182.528 254.129 167.741 268.826C179.444 251.855 191.134 234.884 202.837 217.914C231.472 176.367 260.106 134.808 288.741 93.2611L288.717 93.2367Z" fill="#503DF9"/>
</svg>
