<svg width="18" height="18" viewBox="0 0 18 18" fill="none" xmlns="http://www.w3.org/2000/svg">
<path d="M15.85 1.375H2.31484C1.71719 1.375 1.225 1.90234 1.225 2.53516V16C1.225 16.6328 1.71719 17.125 2.31484 17.125H15.85C16.4477 17.125 16.975 16.6328 16.975 16V2.53516C16.975 1.90234 16.4477 1.375 15.85 1.375ZM5.97109 14.875H3.65078V7.38672H5.97109V14.875ZM4.81094 6.33203C4.0375 6.33203 3.43984 5.73438 3.43984 4.99609C3.43984 4.25781 4.0375 3.625 4.81094 3.625C5.54922 3.625 6.14687 4.25781 6.14687 4.99609C6.14687 5.73438 5.54922 6.33203 4.81094 6.33203ZM14.725 14.875H12.3695V11.2188C12.3695 10.375 12.3695 9.25 11.1742 9.25C9.94375 9.25 9.76797 10.1992 9.76797 11.1836V14.875H7.44766V7.38672H9.6625V8.40625H9.69766C10.0141 7.80859 10.7875 7.17578 11.9125 7.17578C14.268 7.17578 14.725 8.75781 14.725 10.7617V14.875Z" fill="white"/>
</svg>
