<svg width="18" height="18" viewBox="0 0 18 18" fill="none" xmlns="http://www.w3.org/2000/svg">
<path d="M9.1 5.20703C6.85 5.20703 5.05703 7.03516 5.05703 9.25C5.05703 11.5 6.85 13.293 9.1 13.293C11.3148 13.293 13.143 11.5 13.143 9.25C13.143 7.03516 11.3148 5.20703 9.1 5.20703ZM9.1 11.8867C7.65859 11.8867 6.46328 10.7266 6.46328 9.25C6.46328 7.80859 7.62344 6.64844 9.1 6.64844C10.5414 6.64844 11.7016 7.80859 11.7016 9.25C11.7016 10.7266 10.5414 11.8867 9.1 11.8867ZM14.2328 5.06641C14.2328 4.53906 13.8109 4.11719 13.2836 4.11719C12.7562 4.11719 12.3344 4.53906 12.3344 5.06641C12.3344 5.59375 12.7562 6.01562 13.2836 6.01562C13.8109 6.01562 14.2328 5.59375 14.2328 5.06641ZM16.9047 6.01562C16.8344 4.75 16.5531 3.625 15.6391 2.71094C14.725 1.79688 13.6 1.51562 12.3344 1.44531C11.0336 1.375 7.13125 1.375 5.83047 1.44531C4.56484 1.51562 3.475 1.79688 2.52578 2.71094C1.61172 3.625 1.33047 4.75 1.26016 6.01562C1.18984 7.31641 1.18984 11.2188 1.26016 12.5195C1.33047 13.7852 1.61172 14.875 2.52578 15.8242C3.475 16.7383 4.56484 17.0195 5.83047 17.0898C7.13125 17.1602 11.0336 17.1602 12.3344 17.0898C13.6 17.0195 14.725 16.7383 15.6391 15.8242C16.5531 14.875 16.8344 13.7852 16.9047 12.5195C16.975 11.2188 16.975 7.31641 16.9047 6.01562ZM15.2172 13.8906C14.9711 14.5938 14.4086 15.1211 13.7406 15.4023C12.6859 15.8242 10.225 15.7188 9.1 15.7188C7.93984 15.7188 5.47891 15.8242 4.45937 15.4023C3.75625 15.1211 3.22891 14.5938 2.94766 13.8906C2.52578 12.8711 2.63125 10.4102 2.63125 9.25C2.63125 8.125 2.52578 5.66406 2.94766 4.60938C3.22891 3.94141 3.75625 3.41406 4.45937 3.13281C5.47891 2.71094 7.93984 2.81641 9.1 2.81641C10.225 2.81641 12.6859 2.71094 13.7406 3.13281C14.4086 3.37891 14.9359 3.94141 15.2172 4.60938C15.6391 5.66406 15.5336 8.125 15.5336 9.25C15.5336 10.4102 15.6391 12.8711 15.2172 13.8906Z" fill="white"/>
</svg>
