<svg width="219" height="91" viewBox="0 0 219 91" fill="none" xmlns="http://www.w3.org/2000/svg">
<path d="M87.5145 36.7166C84.8794 36.2141 82.2831 36.3768 79.7841 37.2001C78.8797 37.5112 78.2234 37.7601 77.781 37.9611C75.0631 39.2008 72.7683 40.9144 70.9694 43.0539C69.1559 45.2078 67.9453 47.6728 67.3716 50.382C66.793 53.1007 66.968 55.9247 67.8821 58.7535C68.062 59.3662 68.3828 60.1703 68.869 61.1994C70.2741 64.1862 72.287 66.5937 74.8589 68.3552C77.4309 70.1166 80.3335 71.1505 83.4937 71.4185C86.654 71.6913 89.7899 71.1265 92.8189 69.748C97.4475 67.6372 100.739 64.0952 102.591 59.213C102.815 58.6147 102.796 58.002 102.528 57.4372C102.236 56.815 101.745 56.4034 101.138 56.2789L97.6711 55.0727C97.2919 54.9052 96.6987 54.7999 95.9257 55.1541C95.3568 55.4126 94.9484 55.8386 94.7637 56.3411C94.2434 57.5665 93.4753 58.72 92.4737 59.7635C91.477 60.8021 90.4268 61.5775 89.3572 62.0657C87.2325 63.0326 85.1419 63.3964 83.1388 63.1475C81.3253 62.9225 79.7841 62.0705 78.4665 60.5676L96.9175 52.153C98.0357 51.6408 98.8866 50.7984 99.4408 49.6449C100.019 48.4435 100.083 47.2851 99.6353 46.1938L99.0179 44.7244C98.1281 42.8337 96.6209 41.1298 94.54 39.6603C92.4786 38.2004 90.1157 37.2144 87.5145 36.7166ZM91.0151 47.2804L75.9918 54.1298C75.7292 52.421 76.0209 50.741 76.8864 49.0083C77.8053 47.1607 79.2395 45.8157 81.2669 44.8919C83.2944 43.9681 85.0739 43.8102 86.7026 44.4133C88.2973 45.002 89.7462 45.9641 91.0151 47.2804Z" fill="black"/>
<path d="M112.776 21.5817C112.776 21.0074 112.557 20.4904 112.144 20.0836L112.139 20.0788C111.726 19.6719 111.196 19.4565 110.617 19.4565H106.601C106.018 19.4565 105.493 19.6719 105.075 20.0788C104.661 20.4856 104.443 21.0074 104.443 21.5626L104.238 32.2986V58.8444L104.443 69.6091C104.443 70.1835 104.661 70.7052 105.075 71.1073C105.488 71.5141 106.018 71.7343 106.601 71.7343H110.617C111.201 71.7343 111.726 71.5189 112.144 71.1121C112.557 70.7052 112.776 70.1835 112.776 69.6283L112.98 58.8252V32.2795L112.776 21.5817Z" fill="black"/>
<path d="M146.067 37.2961C145.653 36.8892 145.104 36.6738 144.477 36.6738H140.665C140.101 36.6738 139.571 36.8796 139.138 37.2673C138.681 37.679 138.438 38.2342 138.438 38.8565L138.234 56.686C138.234 58.8782 137.602 60.5296 136.304 61.731C134.986 62.9467 133.474 63.5403 131.68 63.5403C129.881 63.5403 128.359 62.9467 127.018 61.7262C125.7 60.5248 125.058 58.8782 125.058 56.6717L124.786 38.866C124.786 38.2486 124.567 37.7077 124.149 37.2961C123.736 36.8892 123.186 36.6738 122.559 36.6738H118.815C118.251 36.6738 117.722 36.8796 117.289 37.2673C116.832 37.679 116.589 38.2246 116.589 38.8565L116.316 56.6812C116.316 59.2803 116.89 61.7453 118.018 64.0141C119.161 66.3164 120.911 68.2023 123.22 69.6095C125.525 71.0215 128.345 71.7347 131.607 71.7347C134.388 71.7347 136.673 71.0359 138.433 69.6478C138.555 69.9685 138.74 70.2557 138.997 70.5046C139.411 70.9162 139.941 71.1316 140.524 71.1316H144.608C145.255 71.1316 145.814 70.8923 146.232 70.4423C146.626 70.0163 146.835 69.4994 146.835 68.949L146.903 57.4758L146.699 38.8612C146.699 38.2486 146.48 37.7077 146.067 37.2961Z" fill="black"/>
<path d="M182.007 38.0137H177.855C176.911 38.0137 176.177 38.4827 175.779 39.3443L166.964 59.3134L158.081 39.3299C157.687 38.4827 156.978 38.0185 156.083 38.0185H151.863C151.279 38.0185 150.754 38.2338 150.336 38.6407C149.923 39.0475 149.704 39.5884 149.704 40.2107C149.704 40.5266 149.753 40.7898 149.855 41.01L162.219 70.7818L156.307 87.0031C156.005 87.745 156.088 88.5205 156.54 89.1906C156.997 89.8607 157.702 90.2292 158.529 90.2292H162.34C162.851 90.2292 163.318 90.1 163.731 89.8367C164.159 89.5639 164.475 89.1762 164.64 88.7119L184.024 40.9717L184.044 40.9191C184.277 40.225 184.19 39.5453 183.791 38.9566C183.378 38.3487 182.746 38.0137 182.007 38.0137Z" fill="black"/>
<path d="M218.786 53.3547C218.64 50.2961 217.755 47.4625 216.151 44.94C214.546 42.4224 212.407 40.3977 209.777 38.9139C207.142 37.4253 204.225 36.6738 201.113 36.6738C197.909 36.6738 194.899 37.4732 192.167 39.0527C189.444 40.6274 187.266 42.7766 185.686 45.4331C184.106 48.0991 183.304 51.0476 183.304 54.2019C183.304 57.3561 184.106 60.3142 185.686 63.0042C187.266 65.6894 189.449 67.8385 192.177 69.3941C194.904 70.9497 197.914 71.7395 201.118 71.7395C203.024 71.7395 205.017 71.28 207.044 70.3801C208.299 69.8249 209.364 69.1691 210.234 68.432L210.258 69.4372L210.268 69.5377C210.341 70.1169 210.599 70.6242 211.031 71.0502C211.61 71.6198 212.218 71.7395 212.626 71.7395H216.234C216.904 71.7395 217.503 71.5001 217.96 71.0502C218.407 70.6099 218.645 70.0642 218.66 69.4707C218.708 68.9825 218.771 67.9294 218.864 66.2542C218.956 64.5406 219 62.5399 219 60.3094C218.99 58.1507 218.922 55.8101 218.786 53.3547ZM196.63 46.5435C197.987 45.749 199.474 45.3421 201.05 45.3421C202.674 45.3421 204.191 45.7346 205.547 46.5148C206.908 47.295 208.017 48.3767 208.834 49.7169C209.641 51.0524 210.054 52.5409 210.054 54.1348C210.054 55.7383 209.651 57.2413 208.858 58.6006C208.066 59.9648 206.972 61.0609 205.605 61.8602C204.249 62.6548 202.742 63.0616 201.118 63.0616C199.494 63.0616 197.982 62.6595 196.63 61.8602C195.259 61.0561 194.156 59.9648 193.334 58.615C192.527 57.2843 192.114 55.7957 192.114 54.1971C192.114 52.5984 192.522 51.1098 193.334 49.7792C194.151 48.439 195.259 47.3476 196.63 46.5435Z" fill="black"/>
<path d="M32.8472 44.7677C31.2428 42.25 29.1035 40.2253 26.4732 38.7415C23.838 37.2529 20.9209 36.5015 17.8092 36.5015C14.6052 36.5015 11.5957 37.3008 8.86329 38.8803C6.14061 40.4551 3.96247 42.6042 2.38234 45.2607C0.802215 47.9267 0 50.8752 0 54.0295C0 57.1838 0.802215 60.1418 2.38234 62.827C3.96247 65.5122 6.14548 67.6613 8.87302 69.2169C11.6006 70.7725 14.6101 71.5623 17.8141 71.5623C19.72 71.5623 21.7134 71.1028 23.7408 70.203C24.9952 69.6477 26.0599 68.992 26.9302 68.2549L26.9545 69.26L26.9643 69.3605C27.0372 69.9397 27.2949 70.4471 27.7276 70.8731C28.3062 71.4426 28.9139 71.5623 29.3223 71.5623H32.9298C33.6008 71.5623 34.1988 71.323 34.6558 70.8731C35.1031 70.4327 35.3414 69.887 35.356 69.2935C35.4046 68.8053 35.4678 67.7523 35.5601 66.077C35.6525 64.3635 35.6963 62.3627 35.6963 60.1322C35.6963 57.9831 35.6282 55.6425 35.4921 53.1871C35.3414 50.1237 34.4516 47.2949 32.8472 44.7677ZM13.3217 46.3712C14.6782 45.5766 16.1659 45.1698 17.7412 45.1698C19.3651 45.1698 20.882 45.5622 22.2385 46.3424C23.5998 47.1226 24.7083 48.2044 25.5251 49.5446C26.3322 50.88 26.7455 52.3686 26.7455 53.9625C26.7455 55.5659 26.3419 57.0689 25.5494 58.4282C24.7569 59.7924 23.663 60.8885 22.2968 61.6878C20.9403 62.4824 19.4331 62.8892 17.8092 62.8892C16.1854 62.8892 14.6733 62.4872 13.3217 61.6878C11.9506 60.8837 10.847 59.7924 10.0253 58.4426C9.21822 57.112 8.80495 55.6234 8.80495 54.0247C8.80495 52.426 9.21335 50.9374 10.0253 49.6068C10.847 48.2714 11.9555 47.1801 13.3217 46.3712Z" fill="black"/>
<path d="M29.93 68.0487C35.2344 67.3499 39.9553 64.9423 44.2484 61.8598C48.9304 58.4997 53.1895 54.6131 57.0887 50.3962C60.7206 46.4761 63.9489 42.264 66.9584 37.8701C70.7945 32.2651 74.3972 26.3538 76.3712 19.8347C78.1312 14.0191 79.9544 2.92887 71.8982 0.765384C68.0329 -0.273279 64.2017 2.01465 61.6638 4.719C59.3447 7.1936 57.2735 9.96976 55.353 12.7555C47.8073 23.7069 43.2225 36.5203 41.8806 49.6687C41.5452 52.9713 41.4965 56.5516 42.6731 59.7107C43.9275 63.0756 46.2175 65.89 49.4604 67.5844C56.1358 71.069 63.5016 69.6235 70.1138 66.8234C71.7377 66.1341 73.3276 65.3683 74.9174 64.5977C76.8427 63.6643 77.5283 60.8211 76.3857 59.0789C75.1168 57.1356 72.8414 56.633 70.7848 57.6334C69.4429 58.2843 68.0961 58.9353 66.7299 59.5384C66.7154 59.5432 65.4804 60.0553 66.2048 59.7633C65.8256 59.9165 65.4513 60.0601 65.0672 60.1989C64.3087 60.4765 63.5405 60.7302 62.7578 60.9504C61.9798 61.1706 61.1922 61.3237 60.3997 61.4913C59.155 61.7545 61.1582 61.4625 59.8843 61.5678C59.6656 61.587 59.4468 61.6061 59.228 61.6157C58.5619 61.654 57.8958 61.6492 57.2346 61.6013C57.0498 61.587 55.9608 61.4242 56.9964 61.6013C56.6657 61.5439 56.34 61.4912 56.0142 61.4194C55.3627 61.2806 54.7404 61.0748 54.1132 60.869C53.1117 60.5387 54.7988 61.2806 53.8896 60.7637C53.7 60.6584 53.5006 60.5675 53.3159 60.4622C53.0339 60.3042 52.7665 60.1223 52.4893 59.9596C51.619 59.4426 53.0193 60.5196 52.2997 59.816C52.0712 59.591 51.8281 59.3852 51.6045 59.1555C51.444 58.9879 50.9092 58.2269 51.4197 58.9831C51.2204 58.6912 51.0211 58.3992 50.846 58.0881C50.7925 57.9923 50.3161 56.9202 50.6369 57.7339C50.4133 57.1691 50.2431 56.5851 50.1119 55.9964C50.0876 55.8863 49.8834 54.6945 50.0098 55.623C49.9611 55.2545 49.932 54.8859 49.9076 54.5174C49.8639 53.7707 49.859 53.024 49.8833 52.2725C49.9271 50.8988 50.0876 49.5395 50.2383 48.1801C50.3744 46.9452 50.107 48.989 50.2918 47.7637C50.3452 47.3951 50.4036 47.0218 50.4619 46.6532C50.5786 45.9113 50.7099 45.1742 50.8509 44.4371C51.3954 41.6131 52.1004 38.8178 52.9658 36.0703C53.3791 34.7588 53.8312 33.4569 54.3174 32.1646C54.58 31.461 54.8571 30.7622 55.144 30.0681C55.2412 29.8384 55.3336 29.6038 55.4308 29.3741C55.1148 30.1256 55.7128 28.7423 55.7711 28.613C56.9574 25.9853 58.2945 23.4245 59.7774 20.9451C61.2603 18.4609 62.9036 16.0916 64.6393 13.775C65.3832 12.7842 64.1482 14.3685 64.9262 13.4016C65.1255 13.1575 65.32 12.9134 65.5193 12.6693C65.9569 12.1332 66.4042 11.6019 66.8564 11.0802C67.2842 10.592 67.7169 10.1181 68.1934 9.67778C68.4122 9.47675 68.6358 9.2805 68.8692 9.09383C68.1788 9.64427 69.3602 8.83058 69.4964 8.73963C69.5985 8.68698 69.7006 8.63433 69.7978 8.58168C69.3262 8.75878 69.3116 8.77314 69.7395 8.61997C70.7799 8.57211 69.0783 8.52424 69.7346 8.57211C70.0166 8.59125 70.6827 8.69655 69.7152 8.53381C69.5888 8.47159 69.4575 8.40937 69.3311 8.34714C69.7395 8.59125 69.72 8.55296 69.2776 8.23226C69.3505 8.29927 69.4186 8.37107 69.4915 8.43809C69.1706 7.99294 69.1317 7.95944 69.3797 8.328C69.8416 9.13212 69.2824 7.7632 69.3943 8.328C69.4429 8.57211 69.5255 8.83536 69.5985 9.07469C69.6811 9.5294 69.6811 9.48632 69.5936 8.93109C69.6131 9.13691 69.6276 9.34751 69.6374 9.55812C69.7054 10.8983 69.6082 12.2625 69.438 13.5931C69.5547 12.6933 69.3748 13.9234 69.3554 14.0143C69.3116 14.2632 69.263 14.5073 69.2144 14.7562C69.0394 15.6178 68.8254 16.4746 68.5775 17.3218C68.1885 18.662 67.7121 19.9687 67.1821 21.261C67.4981 20.4904 67.0071 21.6535 66.9828 21.7062C66.8758 21.9407 66.7688 22.1704 66.657 22.405C66.2729 23.2187 65.8645 24.0276 65.4367 24.8221C64.0267 27.4643 62.4223 30.0059 60.7498 32.4949C59.3593 34.5674 57.9493 36.6351 56.4372 38.6263C56.2768 38.8369 55.4843 40.0575 56.1018 39.0667C55.8149 39.5262 55.3968 39.9474 55.0516 40.3686C54.298 41.2828 53.5298 42.1827 52.7422 43.0729C49.1103 47.1702 45.1527 51.0233 40.7964 54.3786C41.5889 53.7707 40.7332 54.4169 40.6068 54.5126C40.3102 54.7328 40.0136 54.9434 39.7122 55.154C39.1628 55.5417 38.6085 55.915 38.0446 56.2788C36.9701 56.9728 35.8615 57.6238 34.7239 58.2077C34.2231 58.4662 33.7126 58.6959 33.2069 58.9353C32.3366 59.3421 34.0724 58.6194 33.1826 58.9496C32.852 59.0741 32.5263 59.1985 32.1908 59.3134C31.7095 59.4761 31.2184 59.6245 30.7273 59.749C30.3578 59.8447 28.4666 60.1558 29.9105 59.9692C27.7956 60.2468 25.705 61.6253 25.8168 63.9994C25.9238 65.9618 27.6546 68.3455 29.93 68.0487Z" fill="black"/>
</svg>
