<svg width="340" height="142" viewBox="0 0 340 142" fill="none" xmlns="http://www.w3.org/2000/svg">
<path d="M135.867 57.0671C131.776 56.275 127.745 56.5315 123.865 57.8291C122.461 58.3195 121.442 58.7117 120.755 59.0286C116.536 60.9826 112.973 63.6834 110.18 67.0557C107.365 70.4506 105.485 74.3358 104.595 78.6059C103.696 82.891 103.968 87.3421 105.387 91.8007C105.667 92.7664 106.165 94.0338 106.919 95.6558C109.101 100.363 112.226 104.158 116.219 106.934C120.212 109.711 124.718 111.34 129.625 111.763C134.531 112.193 139.399 111.303 144.102 109.13C151.288 105.803 156.398 100.22 159.274 92.525C159.621 91.582 159.591 90.6163 159.176 89.7261C158.723 88.7453 157.96 88.0965 157.017 87.9004L151.635 85.9992C151.046 85.7352 150.125 85.5692 148.925 86.1275C148.042 86.5349 147.408 87.2063 147.121 87.9984C146.314 89.9298 145.121 91.7479 143.566 93.3926C142.019 95.0297 140.388 96.2518 138.728 97.0213C135.429 98.5453 132.183 99.1186 129.073 98.7263C126.258 98.3718 123.865 97.0289 121.82 94.66L150.465 81.3972C152.201 80.59 153.522 79.2622 154.383 77.4441C155.281 75.5505 155.379 73.7248 154.685 72.0047L153.726 69.6886C152.345 66.7086 150.005 64.0229 146.774 61.7068C143.574 59.4058 139.905 57.8517 135.867 57.0671ZM141.302 73.7172L117.978 84.513C117.57 81.8197 118.023 79.1717 119.367 76.4407C120.793 73.5286 123.02 71.4087 126.167 69.9527C129.315 68.4966 132.078 68.2477 134.606 69.1982C137.082 70.1262 139.332 71.6426 141.302 73.7172Z" fill="white"/>
<path d="M175.088 33.2128C175.088 32.3075 174.748 31.4927 174.107 30.8515L174.099 30.8439C173.458 30.2026 172.635 29.8632 171.737 29.8632H165.502C164.596 29.8632 163.781 30.2026 163.132 30.8439C162.49 31.4852 162.151 32.3075 162.151 33.1826L161.833 50.1043V91.9446L162.151 108.912C162.151 109.817 162.49 110.639 163.132 111.273C163.773 111.914 164.596 112.261 165.502 112.261H171.737C172.643 112.261 173.458 111.922 174.107 111.28C174.748 110.639 175.088 109.817 175.088 108.942L175.405 91.9144V50.0741L175.088 33.2128Z" fill="white"/>
<path d="M226.77 57.9807C226.128 57.3395 225.275 57 224.301 57H218.383C217.508 57 216.685 57.3244 216.013 57.9355C215.304 58.5843 214.926 59.4594 214.926 60.4402L214.609 88.5424C214.609 91.9977 213.628 94.6004 211.613 96.494C209.567 98.4103 207.22 99.3458 204.434 99.3458C201.642 99.3458 199.279 98.4103 197.196 96.4865C195.15 94.5929 194.154 91.9977 194.154 88.5198L193.731 60.4552C193.731 59.482 193.391 58.6295 192.742 57.9807C192.101 57.3395 191.248 57 190.274 57H184.462C183.586 57 182.763 57.3244 182.092 57.9355C181.382 58.5843 181.005 59.4443 181.005 60.4402L180.582 88.5349C180.582 92.6314 181.473 96.5167 183.224 100.093C184.998 103.721 187.715 106.694 191.3 108.912C194.878 111.137 199.256 112.261 204.321 112.261C208.639 112.261 212.186 111.16 214.919 108.972C215.108 109.478 215.394 109.93 215.794 110.323C216.436 110.971 217.259 111.311 218.165 111.311H224.505C225.509 111.311 226.377 110.934 227.026 110.225C227.638 109.553 227.962 108.738 227.962 107.871L228.068 89.7872L227.751 60.4477C227.751 59.482 227.411 58.6295 226.77 57.9807Z" fill="white"/>
<path d="M282.57 59.1108H276.124C274.66 59.1108 273.52 59.8502 272.901 61.2081L259.216 92.6827L245.426 61.1855C244.814 59.8502 243.712 59.1184 242.323 59.1184H235.771C234.866 59.1184 234.05 59.4579 233.401 60.0991C232.76 60.7404 232.42 61.5929 232.42 62.5736C232.42 63.0716 232.495 63.4865 232.654 63.8335L251.849 110.759L242.67 136.326C242.202 137.495 242.331 138.718 243.033 139.774C243.742 140.83 244.837 141.411 246.12 141.411H252.038C252.83 141.411 253.555 141.207 254.197 140.792C254.861 140.362 255.351 139.751 255.608 139.019L285.703 63.7732L285.733 63.6902C286.095 62.5963 285.959 61.525 285.34 60.5971C284.699 59.6389 283.718 59.1108 282.57 59.1108Z" fill="white"/>
<path d="M339.668 83.2916C339.441 78.4709 338.068 74.0047 335.577 70.0289C333.086 66.0606 329.765 62.8694 325.681 60.5307C321.59 58.1844 317.061 57 312.23 57C307.256 57 302.584 58.2599 298.341 60.7495C294.114 63.2315 290.733 66.6189 288.28 70.8059C285.826 75.0081 284.581 79.6553 284.581 84.627C284.581 89.5986 285.826 94.2609 288.28 98.5008C290.733 102.733 294.122 106.12 298.357 108.572C302.591 111.024 307.263 112.269 312.238 112.269C315.197 112.269 318.291 111.545 321.439 110.126C323.386 109.251 325.039 108.218 326.391 107.056L326.428 108.64L326.443 108.799C326.557 109.712 326.957 110.511 327.628 111.183C328.527 112.08 329.47 112.269 330.104 112.269H335.705C336.747 112.269 337.675 111.892 338.385 111.183C339.079 110.489 339.449 109.629 339.472 108.693C339.547 107.924 339.645 106.264 339.789 103.623C339.932 100.922 340 97.769 340 94.2534C339.985 90.851 339.879 87.1618 339.668 83.2916ZM305.271 72.5562C307.377 71.3039 309.686 70.6626 312.132 70.6626C314.653 70.6626 317.008 71.2812 319.114 72.5109C321.228 73.7406 322.949 75.4456 324.217 77.558C325.47 79.6629 326.111 82.0091 326.111 84.5213C326.111 87.0486 325.485 89.4175 324.254 91.5601C323.024 93.7102 321.326 95.4378 319.205 96.6977C317.099 97.9501 314.759 98.5913 312.238 98.5913C309.717 98.5913 307.369 97.9576 305.271 96.6977C303.142 95.4303 301.429 93.7102 300.153 91.5827C298.9 89.4854 298.258 87.1392 298.258 84.6194C298.258 82.0996 298.892 79.7534 300.153 77.6561C301.421 75.5437 303.142 73.8236 305.271 72.5562Z" fill="white"/>
<path d="M50.9957 69.7554C48.5048 65.7872 45.1835 62.596 41.1 60.2573C37.0088 57.911 32.4799 56.7266 27.6491 56.7266C22.6748 56.7266 18.0025 57.9864 13.7604 60.476C9.53337 62.9581 6.15178 66.3454 3.69862 70.5325C1.24545 74.7346 0 79.3819 0 84.3535C0 89.3251 1.24545 93.9875 3.69862 98.2198C6.15178 102.452 9.54093 105.839 13.7755 108.291C18.01 110.743 22.6823 111.988 27.6566 111.988C30.6155 111.988 33.7103 111.264 36.8579 109.845C38.8053 108.97 40.4584 107.937 41.8095 106.775L41.8472 108.359L41.8623 108.518C41.9756 109.431 42.3756 110.23 43.0474 110.902C43.9456 111.799 44.8892 111.988 45.5232 111.988H51.124C52.1656 111.988 53.0941 111.611 53.8036 110.902C54.498 110.208 54.8679 109.348 54.8905 108.412C54.966 107.643 55.0641 105.983 55.2076 103.342C55.351 100.642 55.4189 97.488 55.4189 93.9724C55.4189 90.585 55.3132 86.8959 55.1019 83.0257C54.8679 78.1974 53.4866 73.7388 50.9957 69.7554ZM20.6821 72.2828C22.788 71.0304 25.0978 70.3892 27.5434 70.3892C30.0645 70.3892 32.4195 71.0078 34.5255 72.2375C36.639 73.4672 38.36 75.1722 39.6281 77.2846C40.8811 79.3894 41.5227 81.7357 41.5227 84.2479C41.5227 86.7752 40.8962 89.1441 39.6658 91.2867C38.4354 93.4368 36.7371 95.1644 34.6161 96.4243C32.5101 97.6766 30.1702 98.3179 27.6491 98.3179C25.128 98.3179 22.7805 97.6842 20.6821 96.4243C18.5535 95.1568 16.84 93.4368 15.5644 91.3093C14.3114 89.212 13.6698 86.8657 13.6698 84.346C13.6698 81.8262 14.3038 79.4799 15.5644 77.3826C16.84 75.2778 18.561 73.5577 20.6821 72.2828Z" fill="white"/>
<path d="M46.4672 106.452C54.7023 105.351 62.0316 101.556 68.6966 96.6974C75.9656 91.4014 82.5778 85.2754 88.6314 78.629C94.2699 72.4503 99.2819 65.8114 103.954 58.8857C109.91 50.0515 115.503 40.7343 118.568 30.4591C121.3 21.2929 124.131 3.81289 111.623 0.402895C105.622 -1.2342 99.6745 2.37193 95.7343 6.63442C92.1338 10.5348 88.9183 14.9104 85.9367 19.3012C74.2219 36.5624 67.104 56.7583 65.0207 77.4823C64.4998 82.6878 64.4244 88.3309 66.251 93.3101C68.1985 98.6137 71.7536 103.05 76.7883 105.72C87.152 111.213 98.5875 108.934 108.853 104.521C111.374 103.434 113.842 102.227 116.311 101.013C119.3 99.5416 120.364 95.0603 118.59 92.3142C116.62 89.2513 113.088 88.4591 109.895 90.0359C107.811 91.0619 105.721 92.0879 103.6 93.0385C103.577 93.046 101.66 93.8532 102.784 93.393C102.196 93.6345 101.614 93.8608 101.018 94.0796C99.8405 94.5171 98.6479 94.917 97.4327 95.264C96.225 95.6111 95.0021 95.8525 93.7718 96.1165C91.8394 96.5315 94.9493 96.0712 92.9717 96.2372C92.632 96.2674 92.2923 96.2976 91.9527 96.3127C90.9186 96.373 89.8844 96.3655 88.8579 96.29C88.571 96.2674 86.8802 96.0109 88.488 96.29C87.9747 96.1995 87.469 96.1165 86.9633 96.0033C85.9518 95.7846 84.9857 95.4602 84.0119 95.1358C82.457 94.6152 85.0762 95.7846 83.6647 94.9698C83.3703 94.8038 83.0609 94.6605 82.774 94.4945C82.3362 94.2455 81.9211 93.9589 81.4908 93.7024C80.1397 92.8876 82.3136 94.585 81.1965 93.476C80.8417 93.1215 80.4643 92.7971 80.1171 92.4349C79.868 92.1709 79.0377 90.9713 79.8302 92.1633C79.5208 91.7031 79.2113 91.2429 78.9396 90.7526C78.8565 90.6017 78.1168 88.9118 78.615 90.1943C78.2677 89.3041 78.0036 88.3837 77.7998 87.4557C77.762 87.2822 77.445 85.4037 77.6413 86.8673C77.5658 86.2864 77.5205 85.7055 77.4827 85.1246C77.4148 83.9477 77.4072 82.7708 77.445 81.5863C77.5129 79.4211 77.762 77.2786 77.996 75.136C78.2074 73.1896 77.7922 76.411 78.0791 74.4797C78.1621 73.8988 78.2526 73.3103 78.3432 72.7294C78.5244 71.56 78.7282 70.3982 78.9471 69.2364C79.7925 64.7853 80.887 60.3795 82.2306 56.0491C82.8722 53.982 83.5741 51.93 84.3289 49.893C84.7365 48.784 85.1668 47.6826 85.6122 46.5887C85.7631 46.2265 85.9066 45.8569 86.0575 45.4948C85.5669 46.6792 86.4953 44.4989 86.5859 44.2952C88.4276 40.1534 90.5034 36.1173 92.8056 32.2094C95.1078 28.2939 97.6591 24.5595 100.354 20.9081C101.509 19.3464 99.5914 21.8436 100.799 20.3197C101.109 19.9349 101.411 19.5501 101.72 19.1654C102.399 18.3204 103.094 17.483 103.796 16.6607C104.46 15.8912 105.132 15.1443 105.872 14.4502C106.211 14.1334 106.558 13.8241 106.921 13.5298C105.849 14.3974 107.683 13.1149 107.894 12.9716C108.053 12.8886 108.211 12.8056 108.362 12.7226C107.63 13.0018 107.608 13.0244 108.272 12.783C109.887 12.7075 107.245 12.6321 108.264 12.7075C108.702 12.7377 109.736 12.9037 108.234 12.6472C108.038 12.5491 107.834 12.451 107.638 12.3529C108.272 12.7377 108.242 12.6773 107.555 12.1719C107.668 12.2775 107.774 12.3907 107.887 12.4963C107.389 11.7947 107.328 11.7419 107.713 12.3228C108.43 13.5902 107.562 11.4326 107.736 12.3228C107.811 12.7075 107.94 13.1225 108.053 13.4997C108.181 14.2164 108.181 14.1485 108.045 13.2733C108.076 13.5977 108.098 13.9297 108.113 14.2616C108.219 16.374 108.068 18.5241 107.804 20.6214C107.985 19.2031 107.706 21.142 107.676 21.2853C107.608 21.6776 107.532 22.0624 107.457 22.4547C107.185 23.8126 106.853 25.163 106.468 26.4984C105.864 28.6108 105.124 30.6703 104.302 32.7073C104.792 31.4927 104.03 33.3259 103.992 33.4089C103.826 33.7786 103.66 34.1407 103.486 34.5103C102.89 35.7929 102.256 37.0678 101.592 38.3202C99.4027 42.4846 96.9118 46.4906 94.3153 50.4136C92.1565 53.6802 89.9675 56.9393 87.62 60.0777C87.3709 60.4097 86.1405 62.3335 87.0992 60.7718C86.6538 61.4961 86.0047 62.1599 85.4687 62.8238C84.2988 64.2648 83.1061 65.6831 81.8833 67.0863C76.2448 73.5442 70.1006 79.6173 63.3374 84.9058C64.5677 83.9477 63.2393 84.9661 63.043 85.117C62.5826 85.4641 62.1221 85.796 61.6542 86.1279C60.8012 86.739 59.9407 87.3275 59.0651 87.9008C57.397 88.9948 55.676 90.0208 53.9097 90.9412C53.1322 91.3486 52.3397 91.7107 51.5547 92.0879C50.2035 92.7291 52.8982 91.59 51.5169 92.1105C51.0036 92.3067 50.4979 92.5028 49.9771 92.6839C49.2298 92.9404 48.4674 93.1743 47.7051 93.3704C47.1314 93.5213 44.1952 94.0117 46.437 93.7174C43.1535 94.155 39.9078 96.3278 40.0814 100.07C40.2474 103.163 42.9346 106.92 46.4672 106.452Z" fill="white"/>
</svg>
