<svg width="190" height="73" viewBox="0 0 190 73" fill="none" xmlns="http://www.w3.org/2000/svg">
<path fill-rule="evenodd" clip-rule="evenodd" d="M102.405 22.2522C102.46 13.696 109.53 6.77971 118.23 6.79486C126.954 6.81005 134.018 13.7931 134.002 22.3826C133.988 30.954 126.94 37.8935 118.252 37.9178V37.9198L118.197 37.9188H118.174H118.156L102.377 37.8925L102.405 22.2522Z" fill="white"/>
<path fill-rule="evenodd" clip-rule="evenodd" d="M68.5048 22.1923C68.5594 13.6362 75.6305 6.72087 84.3283 6.73501C93.0554 6.7502 100.117 13.7323 100.1 22.3238C100.086 30.8941 93.0402 37.8327 84.3495 37.858V37.86H84.2989H84.2716C84.2686 37.86 84.2575 37.86 84.2494 37.859L68.4785 37.8317L68.5048 22.1923Z" fill="white"/>
<path fill-rule="evenodd" clip-rule="evenodd" d="M38.6891 33.3324C32.6781 27.2416 32.7874 17.3603 38.946 11.2107C45.133 5.05513 55.0588 4.99848 61.1254 11.0853C67.1717 17.1559 67.0979 27.0453 60.9716 33.206L60.9332 33.2434C60.9332 33.2434 60.9251 33.2545 60.918 33.2586C60.914 33.2647 60.9038 33.2707 60.8988 33.2788L49.7267 44.4105L38.6891 33.3324Z" fill="white"/>
<path fill-rule="evenodd" clip-rule="evenodd" d="M26.9244 11.0791C32.9384 17.1709 32.8271 27.0563 26.6685 33.1967C20.4846 39.3594 10.5608 39.4191 4.49117 33.3282C-1.56124 27.2556 -1.48335 17.3682 4.64594 11.2075L4.68034 11.1701C4.68641 11.1671 4.69045 11.162 4.69652 11.1468C4.70259 11.1468 4.71069 11.1418 4.71676 11.1377L15.8869 0L26.9244 11.0791Z" fill="white"/>
<path fill-rule="evenodd" clip-rule="evenodd" d="M68.464 40.8279L72.0936 40.834L72.0613 59.934L68.4316 59.9269L68.464 40.8279Z" fill="white"/>
<path fill-rule="evenodd" clip-rule="evenodd" d="M85.6347 53.0092C84.5806 53.4533 83.4506 53.5858 80.8721 53.8681C78.1326 54.1776 77.4761 54.7856 77.4731 55.9681C77.47 57.8113 79.1533 58.1593 80.3895 58.1613C82.3369 58.1643 85.6266 57.4319 85.6327 54.3516L85.6347 53.0092ZM89.2562 56.7794C89.2562 57.5432 89.8116 57.5685 90.0473 57.5695C90.3892 57.5695 90.9415 57.5462 91.2329 57.4936L91.2268 60.0449C90.5177 60.1774 89.8834 60.3565 88.6472 60.3555C86.2791 60.3504 86.0191 59.0859 85.9119 58.5619C85.2017 59.2467 83.4375 60.4779 79.3557 60.4708C75.7301 60.4647 73.6786 58.832 73.6836 56.0946C73.6897 52.2495 77.642 51.9197 79.9555 51.7093C85.1643 51.2217 85.7156 51.0376 85.7176 49.9572C85.7207 48.3528 83.8785 47.9573 81.7764 47.9532C79.3779 47.9482 78.0922 48.7069 77.9576 50.2637L74.4079 50.2577C74.935 46.5967 77.6531 45.4708 81.7795 45.4788C89.0691 45.492 89.2714 48.3589 89.2694 50.1737L89.2562 56.7794Z" fill="white"/>
<path fill-rule="evenodd" clip-rule="evenodd" d="M98.6344 46.0376L102.262 46.0437L102.249 53.9868C102.246 56.1172 102.739 57.7236 105.846 57.7297C107.455 57.7327 110.087 56.6847 110.093 53.7106L110.105 46.0578L113.734 46.0639L113.71 60.0068L110.081 60.0007L110.085 58.0504H110.031C108.845 59.5506 107.001 60.5197 104.53 60.5157C101.528 60.5106 98.6111 59.4231 98.6172 55.3453L98.6344 46.0376Z" fill="white"/>
<path fill-rule="evenodd" clip-rule="evenodd" d="M115.649 46.0673L119.281 46.0744L119.276 48.1734H119.33C120.517 46.6773 122.36 45.7102 124.829 45.7142C127.831 45.7193 130.75 46.8007 130.743 50.5649L130.727 60.0365L127.099 60.0304L127.112 51.711C127.115 50.2189 126.618 48.5002 123.619 48.4951C121.725 48.4911 119.276 49.5401 119.27 52.5183L119.256 60.0173L115.625 60.0112L115.649 46.0673Z" fill="white"/>
<path fill-rule="evenodd" clip-rule="evenodd" d="M132.887 46.098L136.516 46.104L136.492 60.0469L132.861 60.0409L132.887 46.098ZM132.896 40.9418L136.526 40.9479L136.519 44.2022L132.889 44.1962L132.896 40.9418Z" fill="white"/>
<path fill-rule="evenodd" clip-rule="evenodd" d="M146.619 57.8014C150.011 57.8075 151.303 55.5202 151.308 53.1531C151.312 50.8345 150.028 48.5422 146.635 48.5351C143.214 48.5291 141.919 50.8173 141.915 53.1369C141.909 55.5041 143.196 57.7943 146.619 57.8014ZM154.767 60.0795L151.139 60.0735L151.141 58.1514H151.088C150.825 58.9921 148.636 60.5934 145.745 60.5874C140.426 60.5783 138.119 56.7109 138.124 53.1298C138.131 49.6044 140.452 45.7421 145.771 45.7512C147.954 45.7553 150.031 46.4411 151.106 48.1295H151.16L151.174 40.9744L154.8 40.9805L154.767 60.0795Z" fill="white"/>
<path fill-rule="evenodd" clip-rule="evenodd" d="M168.069 53.1539C167.016 53.599 165.882 53.7315 163.305 54.0138C160.566 54.3233 159.908 54.9303 159.908 56.1128C159.903 57.956 161.589 58.303 162.822 58.305C164.772 58.309 168.06 57.5766 168.066 54.4953L168.069 53.1539ZM171.695 56.9241C171.692 57.6879 172.245 57.7132 172.482 57.7132C172.821 57.7142 173.374 57.6919 173.664 57.6373L173.66 60.1896C172.951 60.3231 172.317 60.5022 171.084 60.5002C168.716 60.4951 168.452 59.2306 168.349 58.7076C167.636 59.3914 165.872 60.6236 161.795 60.6165C158.164 60.6104 156.114 58.9767 156.119 56.2403C156.124 52.3952 160.074 52.0654 162.388 51.854C167.598 51.3674 168.152 51.1833 168.152 50.1029C168.154 48.4975 166.318 48.102 164.209 48.0989C161.818 48.0949 160.525 48.8526 160.389 50.4084L156.839 50.4013C157.374 46.7434 160.085 45.6165 164.214 45.6245C171.504 45.6367 171.71 48.5036 171.706 50.3184L171.695 56.9241Z" fill="white"/>
<path fill-rule="evenodd" clip-rule="evenodd" d="M181.813 57.8627C185.206 57.8688 186.5 55.5815 186.505 53.2154C186.509 50.8968 185.223 48.6035 181.83 48.5964C178.409 48.5914 177.113 50.8806 177.107 53.1992C177.104 55.5653 178.39 57.8576 181.813 57.8627ZM189.965 60.1408L186.334 60.1358L186.335 58.2137H186.284C186.018 59.0543 183.835 60.6547 180.937 60.6497C175.624 60.6416 173.314 56.7732 173.32 53.1921C173.326 49.6667 175.649 45.8044 180.964 45.8125C183.148 45.8175 185.227 46.5024 186.302 48.1908H186.354L186.366 41.0357L190 41.0428L189.965 60.1408Z" fill="white"/>
<path fill-rule="evenodd" clip-rule="evenodd" d="M69.0988 71.585L70.2116 71.587C71.7007 71.59 72.338 70.8435 72.3431 68.3681C72.3471 65.8724 71.7128 65.1218 70.2227 65.1188L69.11 65.1178L69.0988 71.585ZM68.4292 64.5392L70.2612 64.5422C72.4806 64.5462 73.0289 65.8724 73.0239 68.3569C73.0198 70.8445 72.4695 72.1687 70.248 72.1646L68.416 72.1616L68.4292 64.5392Z" fill="white"/>
<path fill-rule="evenodd" clip-rule="evenodd" d="M81.9887 68.2983L83.1571 68.3004C84.0625 68.3014 84.7797 67.9008 84.7807 66.7213C84.7848 65.5832 84.2041 65.1391 83.1632 65.1381L81.9938 65.1361L81.9887 68.2983ZM81.314 64.5625L83.3706 64.5655C84.8455 64.5676 85.4666 65.4325 85.4656 66.7223C85.4636 67.9018 84.8738 68.8851 83.1318 68.882L81.9887 68.88L81.9836 72.1859L81.2998 72.1839L81.314 64.5625Z" fill="white"/>
<path fill-rule="evenodd" clip-rule="evenodd" d="M90.9936 64.5785L91.9111 64.5805L94.8154 71.2247H94.8377L94.8508 64.5845L95.5326 64.5866L95.5195 72.209L94.5989 72.208L91.6936 65.5587H91.6724L91.6623 72.2029L90.9814 72.2019L90.9936 64.5785Z" fill="white"/>
<path fill-rule="evenodd" clip-rule="evenodd" d="M100.043 66.5457C100.045 65.611 99.6103 65.0395 98.6806 65.0384C97.752 65.0364 97.2381 65.6454 97.2371 66.4041C97.232 68.6762 100.929 67.4349 100.925 70.1137C100.921 71.5896 100.001 72.3463 98.6139 72.3442C97.1885 72.3412 96.3964 71.5724 96.3984 70.0742L96.3995 69.8516L97.0803 69.8527L97.0782 70.142C97.0762 71.1141 97.5921 71.7605 98.5936 71.7626C99.5557 71.7646 100.242 71.2881 100.243 70.2189C100.247 67.9589 96.5502 69.2437 96.5542 66.4769C96.5583 65.2792 97.3322 64.4588 98.6634 64.4608C100.082 64.4639 100.733 65.1922 100.731 66.5478L100.043 66.5457Z" fill="white"/>
<path fill-rule="evenodd" clip-rule="evenodd" d="M101.697 64.5971L102.384 64.5981L102.37 72.2205H101.685L101.697 64.5971Z" fill="white"/>
<path fill-rule="evenodd" clip-rule="evenodd" d="M106.08 71.7756C107.168 71.7776 107.83 70.8844 107.834 68.4171C107.837 65.9518 107.18 65.0535 106.091 65.0515C105.001 65.0505 104.338 65.9458 104.333 68.411C104.329 70.8773 104.99 71.7736 106.08 71.7756ZM106.093 64.4739C107.65 64.4769 108.523 65.6817 108.519 68.4181C108.513 71.1504 107.636 72.3603 106.079 72.3573C104.517 72.3542 103.646 71.1424 103.651 68.41C103.656 65.6736 104.532 64.4708 106.093 64.4739Z" fill="white"/>
<path fill-rule="evenodd" clip-rule="evenodd" d="M109.587 64.6115L110.502 64.6135L113.406 71.2577H113.428L113.44 64.6176L114.121 64.6196L114.109 72.241L113.194 72.24L110.285 65.5907H110.264L110.254 72.236L109.573 72.2339L109.587 64.6115Z" fill="white"/>
<path fill-rule="evenodd" clip-rule="evenodd" d="M177.617 64.7192L178.297 64.7202L178.287 71.7691L180.146 71.7721L180.145 72.3477L177.604 72.3437L177.617 64.7192Z" fill="white"/>
<path fill-rule="evenodd" clip-rule="evenodd" d="M128.967 69.2204L126.917 64.647L127.645 64.648L129.309 68.4496L130.996 64.653L131.72 64.6551L129.653 69.2214L129.647 72.2734L128.961 72.2724L128.967 69.2204Z" fill="white"/>
<path fill-rule="evenodd" clip-rule="evenodd" d="M135.383 68.398L136.552 68.3991C137.455 68.4021 138.175 67.9944 138.177 66.828C138.179 65.6849 137.601 65.2438 136.557 65.2428L135.388 65.2388L135.383 68.398ZM134.707 64.6602L136.773 64.6642C138.245 64.6662 138.862 65.5311 138.86 66.828C138.859 67.9964 138.27 68.9827 136.524 68.9807L135.381 68.9777L135.376 72.2876L134.695 72.2866L134.707 64.6602Z" fill="white"/>
<path fill-rule="evenodd" clip-rule="evenodd" d="M142.138 69.4985L140.971 65.2023H140.952L139.771 69.4945L142.138 69.4985ZM140.54 64.6702L141.388 64.6722L143.63 72.3027L142.904 72.3007L142.291 70.0741L139.618 70.0691L138.994 72.2946L138.271 72.2936L140.54 64.6702Z" fill="white"/>
<path fill-rule="evenodd" clip-rule="evenodd" d="M145.036 68.242L146.211 68.243C147.291 68.245 147.92 67.7585 147.922 66.757C147.923 65.8293 147.529 65.2608 146.294 65.2598L145.041 65.2578L145.036 68.242ZM144.358 64.6771L146.634 64.6802C147.905 64.6832 148.608 65.4126 148.606 66.5951C148.605 67.5137 148.239 68.3351 147.226 68.5263V68.5425C148.174 68.6365 148.496 69.1777 148.526 70.3532L148.547 71.1888C148.555 71.6036 148.597 72.0122 148.865 72.3117L148.054 72.3097C147.904 72.0396 147.873 71.644 147.862 71.2424L147.842 70.598C147.797 69.2536 147.556 68.8237 146.328 68.8217L145.035 68.8196L145.029 72.3056L144.344 72.3036L144.358 64.6771Z" fill="white"/>
<path fill-rule="evenodd" clip-rule="evenodd" d="M153.373 69.5183L152.204 65.2221H152.19L151.004 69.5133L153.373 69.5183ZM151.771 64.691H152.623L154.865 72.3215H154.141L153.528 70.095L150.853 70.0899L150.23 72.3134H149.503L151.771 64.691Z" fill="white"/>
<path fill-rule="evenodd" clip-rule="evenodd" d="M155.548 64.6968L159.334 64.7039L159.332 65.2826L156.234 65.2765L156.231 68.0513L159.119 68.0554L159.118 68.633L156.229 68.6279L156.222 72.3243L155.536 72.3233L155.548 64.6968Z" fill="white"/>
<path fill-rule="evenodd" clip-rule="evenodd" d="M160.112 64.7043L160.797 64.7064L160.783 72.3288L160.1 72.3278L160.112 64.7043Z" fill="white"/>
<path fill-rule="evenodd" clip-rule="evenodd" d="M165.183 66.6634C165.185 65.7327 164.746 65.1601 163.819 65.1591C162.887 65.1581 162.375 65.7661 162.375 66.5228C162.37 68.7989 166.07 67.5576 166.065 70.2354C166.064 71.7093 165.139 72.4649 163.752 72.4629C162.319 72.4609 161.532 71.688 161.536 70.1969V69.9744L162.216 69.9754V70.2586C162.215 71.2368 162.724 71.8843 163.732 71.8863C164.692 71.8883 165.377 71.4088 165.379 70.3416C165.384 68.0766 161.689 69.3644 161.695 66.5997C161.696 65.3989 162.474 64.5805 163.802 64.5825C165.218 64.5846 165.866 65.3089 165.864 66.6644L165.183 66.6634Z" fill="white"/>
<path fill-rule="evenodd" clip-rule="evenodd" d="M171.308 69.7687C171.21 71.5056 170.407 72.4748 169.038 72.4727C167.481 72.4697 166.605 71.2618 166.611 68.5295C166.615 65.7941 167.495 64.5893 169.05 64.5924C170.605 64.5954 171.24 65.694 171.239 66.9453H170.555C170.557 65.9064 170.035 65.17 169.05 65.168C167.965 65.1669 167.3 66.0622 167.298 68.5315C167.293 70.9958 167.954 71.8931 169.038 71.8951C170.001 71.8971 170.549 71.0798 170.626 69.7667L171.308 69.7687Z" fill="white"/>
<path fill-rule="evenodd" clip-rule="evenodd" d="M175.484 69.5573L174.315 65.261H174.295L173.109 69.5533L175.484 69.5573ZM173.874 64.7289L174.733 64.731L176.972 72.3615L176.244 72.3605L175.63 70.1329L172.96 70.1289L172.334 72.3534L171.606 72.3514L173.874 64.7289Z" fill="white"/>
<path fill-rule="evenodd" clip-rule="evenodd" d="M86.269 64.5735L90.0575 64.5806L90.0544 65.1602L86.9539 65.1552L86.9478 67.929L89.4525 67.933L89.4515 68.5106L86.9478 68.5066L86.9417 71.6213L90.1374 71.6274V72.204L86.2559 72.1969L86.269 64.5735Z" fill="white"/>
<path fill-rule="evenodd" clip-rule="evenodd" d="M73.7544 64.5507L77.5367 64.5577L77.5357 65.1384L74.4342 65.1333L74.4291 67.9061L76.9348 67.9112V68.4878L74.4291 68.4838L74.423 71.5985L77.6167 71.6035V72.1812L73.7412 72.1751L73.7544 64.5507Z" fill="white"/>
<path fill-rule="evenodd" clip-rule="evenodd" d="M181.023 64.7246L184.807 64.7307V65.3113L181.704 65.3053L181.7 68.0811L184.203 68.0862V68.6618L181.7 68.6577L181.694 71.7745L184.89 71.7815L184.888 72.3612L181.011 72.3531L181.023 64.7246Z" fill="white"/>
<path fill-rule="evenodd" clip-rule="evenodd" d="M189.095 66.7058C189.098 65.7741 188.661 65.2025 187.734 65.2005C186.804 65.1995 186.293 65.8085 186.293 66.5662C186.288 68.8413 189.982 67.599 189.977 70.2777C189.974 71.7506 189.054 72.5063 187.664 72.5053C186.234 72.5023 185.448 71.7304 185.451 70.2393V70.0168L186.134 70.0178V70.3C186.13 71.2782 186.639 71.9256 187.648 71.9287C188.608 71.9297 189.288 71.4502 189.29 70.383C189.296 68.118 185.599 69.4068 185.604 66.642C185.606 65.4413 186.388 64.6229 187.715 64.6239C189.135 64.6279 189.781 65.3512 189.78 66.7068L189.095 66.7058Z" fill="white"/>
<path fill-rule="evenodd" clip-rule="evenodd" d="M115.329 64.6085L119.115 64.6145L119.114 65.1952L116.01 65.1901L116.006 67.966L118.512 67.97L118.511 68.5466L116.005 68.5416L116 71.6593L119.194 71.6644V72.2451L115.316 72.238L115.329 64.6085Z" fill="white"/>
<path fill-rule="evenodd" clip-rule="evenodd" d="M123.446 66.5901C123.446 65.6595 123.01 65.0869 122.08 65.0859C121.151 65.0839 120.641 65.6929 120.64 66.4495C120.635 68.7246 124.327 67.4834 124.323 70.1611C124.32 71.634 123.404 72.3917 122.012 72.3897C120.581 72.3866 119.795 71.6148 119.798 70.1237V69.9011L120.48 69.9021V70.1844C120.478 71.1626 120.991 71.81 121.994 71.813C122.956 71.8151 123.636 71.3346 123.638 70.2673C123.642 68.0023 119.947 69.2911 119.952 66.5264C119.955 65.3256 120.737 64.5073 122.059 64.5093C123.481 64.5113 124.13 65.2356 124.128 66.5912L123.446 66.5901Z" fill="white"/>
</svg>
