<svg width="226" height="37" viewBox="0 0 226 37" fill="none" xmlns="http://www.w3.org/2000/svg">
<g clip-path="url(#clip0_416_4249)">
<path d="M0.097641 4.76421C-0.0533276 4.69244 0.0177164 4.55785 0.0177164 4.45019C0.00883592 3.21203 0.0177164 1.9649 -4.45843e-05 0.726745C-0.00892509 0.41272 0.115402 0.367859 0.381817 0.367859C1.99807 0.376831 3.60544 0.376831 5.22169 0.376831C14.5018 0.376831 23.782 0.367859 33.0621 0.403748C36.9873 0.421692 40.8947 0.619079 44.7755 1.29199C46.5782 1.60602 48.3721 1.98285 50.1038 2.6109C50.1304 2.85315 49.935 2.89801 49.7752 2.96081C49.5354 3.04156 49.2779 3.05053 49.0292 3.04156C46.9334 2.98773 44.8288 3.12231 42.733 3.14923C40.2553 3.19409 37.7687 3.25689 35.2911 3.3197C32.7957 3.3825 30.3002 3.43634 27.8048 3.49914C25.3538 3.56195 22.9028 3.61578 20.4518 3.67858C17.9386 3.75036 15.4254 3.79522 12.9211 3.85803C10.4434 3.92083 7.95689 3.94775 5.47923 4.04644C3.9873 4.10925 2.49538 4.0285 1.00345 4.16308C0.523905 4.20794 0.230849 4.32458 0.097641 4.76421Z" fill="white"/>
<path d="M53.1943 33.2777C51.0896 34.3903 48.8517 35.0811 46.5339 35.5297C43.8253 36.0501 41.0813 36.2834 38.3372 36.3372C27.5118 36.5436 16.6865 36.4 5.86117 36.4359C4.10283 36.4449 2.34448 36.4359 0.577264 36.4359C0.417415 36.4359 0.257566 36.418 0.0977166 36.4C0.0266726 35.7182 0.0266726 35.0273 0.0977166 34.3454C0.222044 34.2377 0.373012 34.2288 0.5151 34.2288C1.2433 34.2288 1.96262 34.148 2.68194 34.148C4.72446 34.157 6.7581 34.0583 8.80061 34.0224C11.447 33.9776 14.0934 33.9147 16.7398 33.834C17.8587 33.7981 18.9866 33.8071 20.1055 33.7622C22.7075 33.6635 25.3095 33.6366 27.9115 33.5648C29.0482 33.5289 30.1849 33.5379 31.3216 33.4931C33.9058 33.3854 36.49 33.3674 39.0831 33.3046C41.4809 33.2418 43.8697 33.197 46.2675 33.1252C48.3189 33.0624 50.3791 33.0444 52.4305 32.9637C52.6082 32.9547 52.7858 32.9458 52.9634 32.9906C53.0966 33.0355 53.2653 33.0534 53.1943 33.2777Z" fill="white"/>
<path d="M99.6482 31.7973C98.2894 33.2957 96.9307 34.785 95.572 36.2834C95.4921 36.3731 95.4033 36.4359 95.2701 36.4449C93.1299 36.5526 90.9985 36.4987 88.7695 36.409C89.2224 35.9066 89.6132 35.449 90.0128 35.0004C94.2488 30.29 98.4848 25.5796 102.721 20.8692C103.902 19.5503 105.092 18.2494 106.282 16.9394C106.522 17.1278 106.397 17.3432 106.309 17.5406C105.571 19.1197 104.834 20.6988 104.097 22.2779C102.676 25.3104 101.256 28.352 99.8346 31.3846C99.7814 31.5281 99.6926 31.6448 99.6482 31.7973Z" fill="white"/>
<path d="M0.0977767 4.76422C0.0977767 4.64758 0.106657 4.52197 0.0977767 4.40533C0.0711351 4.12719 0.195462 4.06439 0.452997 4.04645C1.78507 3.93878 3.11715 4.03747 4.44034 3.94775C5.7369 3.85803 7.04233 3.9657 8.33889 3.85803C9.51999 3.75934 10.7011 3.87597 11.8822 3.77728C13.2143 3.66064 14.5464 3.78625 15.8607 3.67859C17.0773 3.57989 18.2851 3.69653 19.4928 3.58887C20.745 3.4812 22.006 3.60681 23.2581 3.49914C24.457 3.39148 25.6559 3.51709 26.8459 3.41839C28.1335 3.31073 29.4212 3.42737 30.7 3.32867C31.9166 3.22998 33.1244 3.34662 34.3321 3.23895C35.6198 3.13129 36.9075 3.2569 38.1863 3.14923C39.3851 3.04156 40.584 3.16717 41.774 3.06848C43.0705 2.96081 44.376 3.08642 45.6637 2.96979C46.8625 2.87109 48.0525 2.94287 49.2514 2.89801C49.5711 2.88904 49.9085 2.91595 50.1305 2.6109C51.6846 3.03259 53.1499 3.66961 54.482 4.58477C54.4376 4.87188 54.2067 4.81805 54.0291 4.82702C53.3453 4.83599 52.6704 4.90777 51.9955 4.90777C50.4147 4.91674 48.834 4.97058 47.2533 5.01544C45.0065 5.07824 42.7597 5.03338 40.5218 5.2218C40.2909 5.23974 40.0512 5.11413 39.8203 5.21283C39.7848 5.21283 39.7581 5.21283 39.7226 5.21283C39.545 5.13208 39.3496 5.23077 39.172 5.15002C39.0033 5.14105 38.8257 5.13208 38.6569 5.1231C38.4438 5.04235 38.2218 5.15002 38.0175 5.0603C37.8133 5.05133 37.6179 5.04235 37.4137 5.03338C37.1739 4.95263 36.9164 5.0603 36.6766 4.97058C36.3924 4.96161 36.0993 4.95263 35.8152 4.94366C35.5132 4.85394 35.2024 4.97058 34.9005 4.88086C34.5275 4.87188 34.1456 4.86291 33.7727 4.85394C32.5205 4.78216 31.2684 4.84497 30.0073 4.81805C29.8297 4.81805 29.6521 4.85394 29.4834 4.78216C27.8849 4.78216 26.2953 4.79113 24.6968 4.79113C16.6688 4.79113 8.64082 4.79113 0.603966 4.78216C0.417475 4.79113 0.257626 4.77319 0.0977767 4.76422Z" fill="white"/>
<path d="M56.8351 30.6937C56.2756 31.241 55.6806 31.7345 55.0501 32.1921C55.0057 32.219 54.9435 32.219 54.8903 32.237C54.0644 32.3267 53.2296 32.3356 52.4126 32.3446C50.6099 32.3626 48.8071 32.4433 47.0044 32.4702C44.1182 32.5061 41.2409 32.6048 38.3548 32.6676C37.1914 32.6945 36.0192 32.6856 34.8558 32.7394C32.2716 32.8471 29.6785 32.865 27.0943 32.9278C24.6965 32.9816 22.3077 33.0444 19.9099 33.1073C17.3346 33.1701 14.7681 33.2239 12.1928 33.2867C9.78616 33.3495 7.37066 33.3854 4.96404 33.4751C3.47212 33.5289 1.98019 33.4572 0.488268 33.5917C0.355061 33.6007 0.221853 33.6007 0.106407 33.52C0.0087211 33.2059 0.0442431 32.8919 0.0975262 32.5689C0.656998 32.3536 1.26087 32.3715 1.83811 32.3715C3.8895 32.3895 5.94978 32.3536 7.9923 32.237C13.4982 31.9409 19.0041 32.2011 24.51 32.0934C24.5988 32.0934 24.6877 32.1024 24.7765 32.0665C26.819 32.0575 28.8526 32.0485 30.8951 32.0485C34.172 32.0575 37.4578 31.9768 40.7258 31.6717C42.6263 31.4923 44.5001 31.1962 46.3561 30.7476C46.4715 30.7207 46.587 30.7117 46.7024 30.6937C48.4253 30.6489 50.1392 30.5681 51.862 30.5412C53.3184 30.5233 54.7837 30.4425 56.2401 30.4694C56.4532 30.4694 56.7285 30.3887 56.8351 30.6937Z" fill="white"/>
<path d="M0.115645 33.4751C1.4122 33.3046 2.71763 33.4751 4.00531 33.3674C5.23082 33.2687 6.45633 33.3854 7.67296 33.2777C8.8807 33.1701 10.0973 33.2957 11.3051 33.188C12.6194 33.0714 13.9337 33.2059 15.2391 33.0983C16.438 32.9996 17.6369 33.1162 18.8269 33.0175C20.0968 32.9099 21.3667 33.0355 22.6277 32.9188C23.8 32.8201 24.9633 32.9368 26.1266 32.8381C27.4676 32.7304 28.8174 32.8471 30.1495 32.7394C31.3661 32.6407 32.5739 32.7573 33.7816 32.6586C35.0693 32.542 36.357 32.6766 37.6269 32.5689C38.808 32.4702 39.9891 32.5869 41.1702 32.4882C42.4845 32.3805 43.7989 32.4971 45.1043 32.3895C46.1699 32.2998 47.2267 32.3895 48.2924 32.3087C49.7044 32.21 51.1253 32.2728 52.5373 32.21C53.1856 32.1831 53.8338 32.1472 54.4821 32.1383C54.6242 32.1383 54.784 32.0934 54.8906 32.237C54.3933 32.7035 53.825 33.0444 53.1944 33.2867C53.1412 33.0444 52.9369 33.1252 52.7948 33.1252C50.9477 33.1073 49.1005 33.197 47.2623 33.2418C46.1433 33.2687 45.0155 33.2239 43.9054 33.3136C42.5467 33.4213 41.188 33.3136 39.8382 33.4123C38.6304 33.502 37.4138 33.3944 36.2149 33.4931C34.9272 33.6097 33.6396 33.4751 32.3696 33.5828C31.1885 33.6815 30.0074 33.5648 28.8352 33.6635C27.5209 33.7712 26.2066 33.6546 24.9011 33.7622C23.8355 33.8519 22.7787 33.7622 21.713 33.843C20.301 33.9417 18.8802 33.8519 17.4682 33.9506C16.2604 34.0314 15.0438 33.9237 13.8449 34.0314C12.5484 34.148 11.2429 34.0134 9.95525 34.1211C8.75638 34.2198 7.55751 34.1032 6.3764 34.2108C5.10649 34.3275 3.83658 34.2019 2.57554 34.3005C1.76742 34.3634 0.959293 34.3454 0.142286 34.3723C0.017959 34.0673 0.017959 33.7712 0.115645 33.4751Z" fill="white"/>
<path d="M166.323 8.54149C166.323 7.67119 166.323 6.80987 166.323 5.93957C166.713 5.71526 167.158 5.70629 167.575 5.71526C169.511 5.75115 171.447 5.64349 173.374 5.58965C175.097 5.53582 176.828 5.59862 178.551 5.4461C178.809 5.42815 179.049 5.47301 179.279 5.58068C180.549 6.28948 181.793 7.03417 183.009 7.82372C182.894 8.05699 182.672 8.04802 182.476 8.04802C181.198 8.01213 179.919 8.13774 178.64 8.13774C177.281 8.13774 175.931 8.19158 174.582 8.2813C173.578 7.68914 172.575 7.088 171.482 6.43303C171.482 7.15978 171.482 7.80577 171.482 8.45177C171.349 8.56841 171.189 8.59532 171.029 8.58635C169.671 8.53252 168.321 8.69402 166.962 8.67607C166.74 8.67607 166.509 8.70299 166.323 8.54149Z" fill="white"/>
<path d="M111.006 19.2094C109.612 20.8244 108.191 22.4035 106.743 23.9646C106.424 23.8211 106.601 23.5968 106.681 23.4173C106.921 22.87 107.187 22.3407 107.445 21.8023C108.333 19.9182 109.212 18.0251 110.091 16.1319C111.193 13.7723 112.312 11.4126 113.395 9.04394C114.425 7.88653 115.446 6.72912 116.476 5.58069C116.894 5.11413 117.32 4.66553 117.746 4.20795C117.933 4.40533 117.809 4.60272 117.738 4.79114C117.462 5.53583 117.08 6.22668 116.743 6.94445C115.562 9.44768 114.407 11.9689 113.208 14.4721C112.471 16.0512 111.752 17.6303 111.006 19.2094Z" fill="white"/>
<path d="M39.7935 5.21282C40.3885 5.1231 40.9746 4.9616 41.5696 4.97057C43.7897 4.99749 46.0009 4.88085 48.2122 4.83599C49.5087 4.81805 50.8142 4.84496 52.1018 4.75524C52.7768 4.71038 53.4517 4.70141 54.1355 4.68346C54.2509 4.68346 54.3752 4.70141 54.4552 4.5758C55.7872 5.40124 56.9595 6.39715 57.9186 7.6353C57.4923 7.87755 57.0039 7.86858 56.5421 7.85961C54.5351 7.82372 52.537 7.98522 50.5389 7.97624C48.3809 6.72912 46.0009 6.19079 43.5766 5.76012C42.5819 5.58068 41.5784 5.4461 40.5838 5.29357C40.4329 5.22179 40.2641 5.30254 40.1132 5.23077C40.0066 5.22179 39.9 5.21282 39.7935 5.21282Z" fill="white"/>
<path d="M111.006 19.2094C111.042 18.689 111.335 18.2494 111.548 17.8008C112.463 15.8 113.431 13.8171 114.363 11.8163C115.464 9.45665 116.557 7.088 117.658 4.72833C117.738 4.55786 117.782 4.39636 117.764 4.20794C118.519 3.35559 119.274 2.49426 120.038 1.64191C120.464 1.16638 120.899 0.699831 121.325 0.224307C121.476 0.0538364 121.627 -0.0538294 121.858 0.0179478C122 0.197391 121.894 0.35889 121.823 0.520388C121.095 2.09949 120.349 3.66961 119.62 5.24871C118.297 8.11083 116.93 10.955 115.633 13.8261C115.571 13.9696 115.438 14.0953 115.438 14.2747C114.496 15.3424 113.555 16.4101 112.605 17.4778C112.072 18.0609 111.53 18.6262 111.006 19.2094Z" fill="white"/>
<path d="M205.833 27.1228C204.03 26.0372 202.227 24.9516 200.424 23.857C200.522 23.534 200.797 23.5609 201.037 23.5609C202.449 23.5519 203.861 23.4173 205.273 23.4622C206.303 23.4891 207.324 23.3186 208.364 23.3725C208.568 23.3814 208.772 23.3725 208.976 23.4173C210.797 24.4671 212.591 25.5437 214.367 26.6563C214.26 26.8267 214.083 26.8626 213.905 26.8806C213.363 26.9254 212.822 26.9972 212.271 26.9882C210.308 26.9344 208.355 27.1318 206.392 27.078C206.214 27.069 206.019 27.06 205.833 27.1228Z" fill="white"/>
<path d="M208.985 23.4083C208.852 23.4801 208.718 23.516 208.559 23.516C207.111 23.4622 205.672 23.6685 204.225 23.6057C203.106 23.5609 201.987 23.7583 200.868 23.6955C200.699 23.6865 200.548 23.7403 200.424 23.857C198.701 22.8252 196.987 21.7844 195.264 20.7526C195.238 20.5552 195.38 20.5014 195.522 20.4565C195.62 20.4296 195.726 20.4206 195.833 20.4206C197.254 20.4745 198.666 20.2681 200.078 20.3309C201.099 20.3758 202.111 20.2053 203.133 20.2412C203.355 20.2502 203.577 20.2053 203.79 20.295C205.539 21.2999 207.271 22.3407 208.985 23.4083Z" fill="white"/>
<path d="M113.395 9.0529C113.413 9.22337 113.395 9.3759 113.315 9.52843C112.445 11.3767 111.575 13.216 110.704 15.0642C109.381 17.8815 108.058 20.6988 106.744 23.516C106.672 23.6596 106.575 23.8121 106.735 23.9646C106.646 24.2069 106.335 24.2876 106.317 24.5837C106.202 25.0772 105.953 25.5168 105.74 25.9744C105.465 26.5486 105.225 27.1408 104.932 27.706C104.79 27.9841 104.879 28.0739 105.172 28.0739C105.704 28.0649 106.228 28.0739 106.761 28.0649C106.966 28.0918 107.205 27.9841 107.347 28.2354C105.873 28.2443 104.399 28.2533 102.925 28.2623C102.854 28.0739 102.943 27.9124 103.023 27.7509C103.848 26.0192 104.657 24.2697 105.465 22.5291C106.939 19.3709 108.431 16.2217 109.887 13.0545C109.905 13.0096 109.914 12.9737 109.914 12.9289C111.042 11.601 112.205 10.309 113.395 9.0529Z" fill="white"/>
<path d="M79.5783 36.4C77.9531 36.409 76.3369 36.418 74.7118 36.4359C74.5253 36.4359 74.4897 36.3462 74.4897 36.1937C74.4986 34.4172 74.4986 32.6497 74.5075 30.8732C74.6407 30.7565 74.8006 30.7296 74.9604 30.7386C76.3014 30.7924 77.6423 30.622 78.9833 30.6489C79.1875 30.6489 79.4007 30.6309 79.5783 30.7745C79.6582 31.3397 79.6049 31.905 79.6138 32.4702C79.6227 33.6366 79.6138 34.803 79.6138 35.9694C79.6138 36.1039 79.6493 36.2565 79.5783 36.4Z" fill="white"/>
<path d="M203.79 20.295C203.559 20.3668 203.328 20.3668 203.097 20.3847C201.534 20.4924 199.971 20.4117 198.417 20.4924C197.52 20.5373 196.623 20.5283 195.726 20.5552C195.549 20.5642 195.362 20.5373 195.273 20.7526C193.622 19.7567 191.97 18.7608 190.309 17.7559C190.309 17.5495 190.469 17.4867 190.629 17.4329C190.78 17.3791 190.948 17.3611 191.108 17.3701C193.151 17.4239 195.184 17.2176 197.227 17.2804C197.715 17.2983 198.195 17.1189 198.683 17.2265C200.406 18.2135 202.102 19.2363 203.79 20.295Z" fill="white"/>
<path d="M198.675 17.2265C198.346 17.3611 197.991 17.406 197.645 17.415C195.442 17.4508 193.231 17.4778 191.029 17.5047C190.762 17.5047 190.505 17.5316 190.309 17.7559C188.684 16.769 187.05 15.791 185.425 14.8041C185.407 14.4093 185.736 14.4631 185.949 14.4362C186.491 14.3824 187.041 14.3285 187.583 14.3285C189.368 14.3465 191.153 14.2119 192.938 14.2209C193.267 14.2209 193.586 14.2388 193.897 14.3465C195.513 15.2706 197.103 16.2306 198.675 17.2265Z" fill="white"/>
<path d="M109.914 12.9199C110.047 13.3416 109.736 13.6467 109.585 13.9696C108.786 15.7461 107.942 17.5047 107.108 19.2722C105.767 22.1253 104.426 24.9875 103.094 27.8406C103.031 27.9752 102.978 28.1187 102.925 28.2533C101.833 29.4287 100.74 30.613 99.648 31.7883C99.6214 31.5551 99.719 31.3487 99.8167 31.1513C100.731 29.2133 101.646 27.2754 102.561 25.3374C103.795 22.6996 105.03 20.0528 106.264 17.415C106.344 17.2445 106.326 17.1009 106.291 16.9394C107.472 15.5757 108.653 14.2119 109.914 12.9199Z" fill="white"/>
<path d="M166.314 4.14514C166.296 2.97876 166.287 1.82135 166.27 0.654971C166.27 0.448611 166.332 0.367862 166.545 0.367862C167.788 0.35889 169.022 0.340945 170.266 0.403751C170.408 0.412723 170.568 0.439639 170.692 0.502444C172.628 1.46246 174.431 2.64679 176.251 3.78625C176.109 4.01056 175.878 4.01056 175.656 4.01056C174.226 4.01056 172.797 4.10028 171.376 4.12719C169.831 4.15411 168.285 4.18103 166.74 4.22589C166.589 4.22589 166.447 4.24383 166.314 4.14514Z" fill="white"/>
<path d="M74.4983 13.2967C74.4628 11.6548 74.4628 10.004 74.4983 8.36205C74.8713 8.14672 75.2887 8.15569 75.6972 8.13775C76.8605 8.09289 78.015 8.20056 79.1783 8.06597C79.3204 8.04803 79.4714 8.06597 79.5869 8.18261C79.6313 9.8604 79.6313 11.5382 79.5869 13.216C79.4448 13.3595 79.2671 13.3506 79.0895 13.3506C77.8019 13.3685 76.5053 13.3147 75.2176 13.4403C74.9779 13.4582 74.7115 13.4672 74.4983 13.2967Z" fill="white"/>
<path d="M225.911 36.409C224.402 36.418 222.901 36.427 221.391 36.4359C221.267 36.4359 221.16 36.4 221.063 36.3372C219.446 35.3593 217.839 34.3813 216.223 33.4033C216.223 33.0983 216.462 33.0893 216.658 33.0803C217.288 33.0624 217.919 32.9547 218.558 32.9727C220.521 33.0265 222.475 32.8291 224.437 32.8829C224.659 32.8919 224.881 32.8291 225.094 32.8201C225.37 32.8022 225.654 32.7394 225.911 32.9278C225.973 34.0762 225.982 35.2426 225.911 36.409Z" fill="white"/>
<path d="M166.323 8.54149C168.046 8.57738 169.76 8.37999 171.473 8.45177C171.473 10.0398 171.473 11.6189 171.473 13.207C171.358 13.3147 171.216 13.3416 171.065 13.3416C169.653 13.3954 168.241 13.4762 166.829 13.4313C166.651 13.4223 166.474 13.4223 166.332 13.2878C166.332 11.7087 166.323 10.1206 166.323 8.54149Z" fill="white"/>
<path d="M174.582 8.2813C174.697 8.1198 174.866 8.10186 175.053 8.08392C176.42 7.98522 177.788 8.03905 179.155 7.98522C180.328 7.93139 181.509 7.92242 182.681 7.90447C182.797 7.90447 182.903 7.85064 183.019 7.82372C184.475 8.64916 185.914 9.50152 187.317 10.4077C187.13 10.65 186.846 10.6589 186.588 10.65C184.99 10.6051 183.4 10.7845 181.802 10.7486C181.216 10.7307 180.621 10.7397 180.035 10.8204C179.608 10.8832 179.182 10.8384 178.756 10.8025C177.362 9.9591 175.976 9.12469 174.582 8.2813Z" fill="white"/>
<path d="M205.833 27.1228C205.921 26.9075 206.099 26.9254 206.277 26.9254C208.47 26.8985 210.655 26.8806 212.848 26.8267C213.354 26.8178 213.86 26.7101 214.367 26.6473C215.77 27.4548 217.173 28.2533 218.514 29.1595C218.363 29.4017 218.105 29.3928 217.874 29.3838C216.152 29.33 214.429 29.5274 212.697 29.4825C211.765 29.4556 210.841 29.6081 209.918 29.5902C208.559 28.7827 207.173 27.9931 205.833 27.1228Z" fill="white"/>
<path d="M193.888 14.3554C193.595 14.4272 193.302 14.3644 193.009 14.3644C191.18 14.3554 189.35 14.4721 187.521 14.4811C186.899 14.4811 186.251 14.4541 185.638 14.6246C185.532 14.6515 185.434 14.6695 185.425 14.8041C183.978 13.9786 182.548 13.1442 181.154 12.238C181.127 12.0406 181.269 11.9778 181.411 11.933C181.527 11.8971 181.642 11.8971 181.766 11.8971C183.542 11.9599 185.31 11.7625 187.086 11.7984C187.619 11.8074 188.151 11.8074 188.675 11.7266C188.977 11.6817 189.288 11.6459 189.599 11.7625C191.047 12.5969 192.485 13.4582 193.888 14.3554Z" fill="white"/>
<path d="M79.5694 8.18261C78.2196 8.32616 76.8609 8.24541 75.5022 8.2813C75.1647 8.29027 74.8361 8.38896 74.4987 8.36205C74.4631 7.56353 74.4543 6.77398 74.4987 5.97546C74.4276 5.31152 74.4809 4.6386 74.4631 3.96569C74.4543 3.71447 74.6319 3.67858 74.8184 3.66064C76.2748 3.52606 77.74 3.544 79.1965 3.56195C79.4362 3.56195 79.6227 3.62475 79.6227 3.94775C79.6138 5.32049 79.6227 6.69323 79.6138 8.06597C79.6138 8.11083 79.5872 8.13774 79.5694 8.18261Z" fill="white"/>
<path d="M50.5391 7.98522C50.7167 7.80578 50.9387 7.82372 51.1607 7.82372C53.0345 7.84167 54.8994 7.68017 56.7732 7.72503C57.1462 7.734 57.528 7.61736 57.9099 7.64428C58.8068 8.65813 59.5173 9.78862 60.0234 11.0537C59.837 11.1703 59.6327 11.1973 59.4285 11.1883C57.8388 11.1344 56.2492 11.2959 54.6507 11.287C54.4198 11.287 54.1712 11.3049 53.9669 11.1524C53.0256 9.87835 51.8711 8.8286 50.5391 7.98522Z" fill="white"/>
<path d="M225.911 36.409C225.911 35.2516 225.902 34.0942 225.902 32.9368C225.663 32.551 225.805 32.1293 225.769 31.7255C225.751 31.564 225.76 31.4025 225.778 31.241C225.76 30.7565 225.76 30.272 225.778 29.7876C225.76 28.5404 225.76 27.2933 225.778 26.0372C225.76 24.9875 225.76 23.9467 225.778 22.8969C225.76 21.8472 225.76 20.8064 225.778 19.7567C225.76 18.5903 225.76 17.4239 225.778 16.2575C225.76 15.1809 225.76 14.1042 225.778 13.0276C225.76 11.8881 225.76 10.7576 225.778 9.61815C225.76 8.51458 225.76 7.41997 225.778 6.3164C225.76 5.57171 225.769 4.82702 225.769 4.07336C225.769 3.77728 225.654 3.62475 225.343 3.66064C224.251 3.8042 223.158 3.71447 222.066 3.73242C220.983 3.75036 220.983 3.74139 220.983 4.82702C220.983 5.38329 220.992 5.9306 220.974 6.48687C220.992 7.55456 220.992 8.62224 220.974 9.6989C220.992 10.8384 220.992 11.9689 220.974 13.1083C220.992 14.2119 220.992 15.3244 220.974 16.428C220.992 17.5944 220.992 18.7608 220.974 19.9272C220.992 20.9769 220.992 22.0177 220.974 23.0674C220.992 24.0813 220.992 25.0951 220.974 26.1179C220.992 27.3561 220.992 28.5853 220.974 29.8234C220.947 30.0298 221.045 30.281 220.787 30.4246C220.787 27.1497 220.778 23.8749 220.778 20.609C220.778 14.0324 220.778 7.45586 220.77 0.879274C220.77 0.502444 220.832 0.367861 221.249 0.376834C222.688 0.40375 224.117 0.40375 225.556 0.376834C225.938 0.367861 226.009 0.493472 226.009 0.852358C226 11.7894 226 22.7354 225.991 33.6725C225.991 34.4531 225.991 35.2247 225.982 36.0053C225.982 36.1309 226.062 36.2924 225.911 36.409Z" fill="white"/>
<path d="M166.332 13.2967C168.046 13.3506 169.76 13.216 171.474 13.207C171.474 14.6426 171.474 16.0781 171.474 17.5136C171.358 17.6213 171.216 17.6482 171.065 17.6482C169.653 17.6572 168.241 17.8008 166.829 17.738C166.652 17.729 166.474 17.729 166.332 17.5944C166.332 16.1678 166.332 14.7323 166.332 13.2967Z" fill="white"/>
<path d="M79.5602 30.7835C77.8818 30.7386 76.2034 30.936 74.5161 30.8732C74.5161 29.4646 74.5161 28.0649 74.5161 26.6563C74.6493 26.5396 74.8092 26.5127 74.969 26.5217C76.31 26.5576 77.6509 26.3692 78.9919 26.432C79.1961 26.4409 79.4093 26.414 79.5869 26.5576C79.6224 27.9662 79.6668 29.3748 79.5602 30.7835Z" fill="white"/>
<path d="M166.314 4.14514C166.776 4.0285 167.255 4.04645 167.726 4.05542C169.689 4.09131 171.651 3.9657 173.614 3.92981C174.484 3.91186 175.381 4.00159 176.251 3.78625C177.29 4.33356 178.294 4.94366 179.279 5.58069C177.805 5.69732 176.322 5.59863 174.857 5.68835C173.862 5.75116 172.877 5.69732 171.891 5.76013C170.399 5.85882 168.907 5.82293 167.415 5.84985C167.051 5.85882 166.687 5.95752 166.314 5.9306C166.287 5.33844 166.278 4.74628 166.314 4.14514Z" fill="white"/>
<path d="M0.115355 33.4751C0.115355 33.7712 0.115355 34.0762 0.115355 34.3723C0.106475 35.0452 0.106475 35.7271 0.0975941 36.4C-9.14456e-05 36.2834 0.0443111 36.1398 0.0443111 36.0142C0.0354306 32.3536 0.0354306 28.693 0.00878906 25.0323C0.00878906 24.6465 0.0887136 24.5209 0.488336 24.5299C1.98026 24.5568 3.47219 24.5478 4.97299 24.5388C5.21277 24.5388 5.35485 24.5568 5.34597 24.8708C5.31933 25.9744 5.32821 27.078 5.31933 28.1815C5.17724 28.3251 4.99963 28.3161 4.82202 28.3161C3.51659 28.3789 2.20227 28.4328 0.89684 28.4148C0.239682 28.4058 0.239682 28.4148 0.230802 29.0877C0.230802 29.7696 0.239682 30.4515 0.221921 31.1423C0.19528 31.6268 0.337368 32.1203 0.106475 32.5869C0.115355 32.874 0.115355 33.1701 0.115355 33.4751Z" fill="white"/>
<path d="M79.5606 30.7835C79.5606 29.3748 79.5606 27.9752 79.5606 26.5665C79.4362 26.423 79.4362 26.2346 79.4362 26.0641C79.4362 25.1848 79.4185 24.3145 79.4451 23.4353C79.4274 22.242 79.4274 21.0487 79.4451 19.8464C79.4274 18.68 79.4274 17.5136 79.4451 16.3473C79.4185 15.468 79.4362 14.5887 79.4362 13.7094C79.4362 13.53 79.4451 13.3506 79.5694 13.207C79.5694 11.5292 79.5694 9.8604 79.5694 8.1826C79.5694 6.82781 79.5606 5.47301 79.5783 4.11822C79.5872 3.77728 79.4718 3.68756 79.1432 3.69653C78.1397 3.71447 77.1362 3.68756 76.1327 3.71447C75.6798 3.72344 75.2269 3.83111 74.774 3.79522C74.5076 3.77728 74.5076 3.95672 74.5076 4.14514C74.5076 4.75524 74.4987 5.36535 74.4987 5.97545C74.401 5.35638 74.4632 4.72832 74.4543 4.10027C74.4454 2.9967 74.4632 1.88415 74.4454 0.780578C74.4365 0.475525 74.5076 0.367859 74.8361 0.367859C76.3014 0.385803 77.7667 0.385803 79.232 0.367859C79.5872 0.367859 79.6671 0.466553 79.6671 0.816467C79.6494 7.50072 79.6494 14.176 79.6494 20.8603C79.6494 25.8847 79.6405 30.9001 79.6316 35.9245C79.6316 36.077 79.6938 36.2565 79.5783 36.4C79.5694 34.5248 79.5606 32.6586 79.5606 30.7835Z" fill="white"/>
<path d="M225.902 31.2321C225.902 31.7973 225.902 32.3715 225.902 32.9368C224.428 33.0624 222.954 32.9547 221.489 33.0444C220.325 33.1252 219.162 33.0714 217.999 33.1073C217.501 33.1252 217.004 33.2508 216.507 33.2059C216.373 33.197 216.285 33.2777 216.231 33.3944C215.281 32.8291 214.34 32.2549 213.39 31.6897C213.327 31.3487 213.594 31.3756 213.771 31.3667C214.349 31.3487 214.926 31.268 215.494 31.2769C217.697 31.3038 219.89 31.1603 222.092 31.1513C223.149 31.1513 224.215 31.0795 225.272 31.0795C225.494 31.0885 225.725 31.0616 225.902 31.2321Z" fill="white"/>
<path d="M79.5603 19.8374C79.5603 21.0307 79.5603 22.233 79.5603 23.4263C79.1874 23.6506 78.77 23.6237 78.3615 23.6506C77.1981 23.7044 76.0348 23.5968 74.8803 23.7224C74.7471 23.7403 74.6139 23.7044 74.5073 23.6057C74.5073 22.3766 74.5073 21.1563 74.5073 19.9272C74.6228 19.8195 74.7649 19.7926 74.9158 19.7926C76.3012 19.7567 77.6777 19.649 79.063 19.7028C79.2406 19.7028 79.4271 19.7028 79.5603 19.8374Z" fill="white"/>
<path d="M53.2651 27.0062C54.02 26.0731 54.6683 25.0772 55.1123 23.9467C55.654 23.7134 56.2401 23.7852 56.8085 23.7403C57.954 23.6596 59.0996 23.7672 60.2541 23.6865C60.4672 23.6685 60.7958 23.6416 60.7514 24.0543C60.5472 24.9785 60.183 25.8488 59.7745 26.7011C59.7213 26.8088 59.7035 26.9254 59.5881 26.9882C59.4282 27.0062 59.2772 27.069 59.1085 27.06C57.3857 26.9972 55.6629 27.1856 53.9401 27.1497C53.7092 27.1497 53.4605 27.2036 53.2651 27.0062Z" fill="white"/>
<path d="M79.5606 19.8374C77.8733 19.7746 76.186 19.9361 74.5076 19.9272C74.4721 18.7608 74.4721 17.5944 74.5076 16.428C74.6408 16.3114 74.8007 16.2845 74.9605 16.2934C76.2837 16.3293 77.6069 16.2306 78.939 16.2037C79.161 16.1947 79.383 16.1768 79.5695 16.3473C79.5695 17.5047 79.5606 18.6711 79.5606 19.8374Z" fill="white"/>
<path d="M56.8354 30.6937C56.7022 30.5502 56.5334 30.613 56.3736 30.613C55.379 30.604 54.3844 30.5502 53.3986 30.622C52.111 30.7207 50.8322 30.622 49.5534 30.7117C48.8429 30.7655 48.1414 30.7565 47.4309 30.7835C47.1734 30.7924 46.9336 30.7655 46.6938 30.6848C47.4576 30.4425 48.2391 30.2182 48.9939 29.9401C49.882 29.6171 50.6812 29.1146 51.4804 28.6122C52.0488 28.5314 52.626 28.5135 53.1944 28.5045C54.7396 28.4686 56.2848 28.4686 57.83 28.3969C58.0787 28.3879 58.3717 28.3341 58.5404 28.6301C58.1231 29.4466 57.5369 30.1195 56.8354 30.6937Z" fill="white"/>
<path d="M115.42 14.2747C115.322 13.9338 115.535 13.6825 115.66 13.4134C116.787 10.9909 117.933 8.56841 119.07 6.14593C119.967 4.23486 120.846 2.31482 121.734 0.403747C121.787 0.278137 121.849 0.161499 121.832 0.0179443C122.276 0.0179443 122.72 0.0179443 123.164 0.0179443C123.279 0.170471 123.181 0.305053 123.128 0.430663C122.409 1.99182 121.681 3.544 120.952 5.08721C120.1 6.90856 119.256 8.73888 118.395 10.5513C118.306 10.7307 118.173 10.9101 118.217 11.1344C117.329 12.229 116.379 13.2519 115.42 14.2747Z" fill="white"/>
<path d="M171.473 27.8227C171.473 28.9262 171.473 30.0388 171.473 31.1423C171.349 31.268 171.18 31.2859 171.021 31.2769C169.697 31.241 168.374 31.4295 167.051 31.3667C166.829 31.3577 166.607 31.3936 166.412 31.241C166.332 30.2182 166.394 29.1954 166.376 28.1726C166.376 27.9931 166.474 27.8944 166.616 27.8406C166.722 27.7957 166.847 27.7778 166.962 27.7778C168.276 27.8047 169.582 27.6253 170.887 27.6791C171.092 27.6881 171.305 27.6612 171.473 27.8227Z" fill="white"/>
<path d="M166.421 31.2321C168.108 31.2949 169.786 31.0975 171.474 31.1424C171.474 32.2459 171.474 33.3585 171.474 34.462C171.349 34.5877 171.181 34.6056 171.021 34.5966C169.698 34.5518 168.374 34.7492 167.051 34.6953C166.829 34.6864 166.607 34.7222 166.412 34.5697C166.358 33.4572 166.341 32.3446 166.421 31.2321Z" fill="white"/>
<path d="M79.5695 16.3473C77.8822 16.3383 76.1949 16.4998 74.5076 16.437C74.4721 15.3872 74.4721 14.3465 74.5076 13.2967C76.1949 13.1891 77.8822 13.207 79.5695 13.207C79.5695 14.2478 79.5695 15.2975 79.5695 16.3473Z" fill="white"/>
<path d="M118.226 11.1524C117.986 10.9281 118.208 10.7307 118.279 10.5513C118.821 9.35796 119.381 8.1826 119.94 6.99828C121.006 4.72833 122.071 2.45837 123.128 0.188415C123.155 0.134582 123.155 0.0717773 123.173 0.0179443C123.705 0.0179443 124.238 0.0179443 124.771 0.0179443C124.913 0.197387 124.807 0.358886 124.736 0.520385C123.883 2.2879 123.084 4.08233 122.231 5.84984C121.965 6.40612 121.743 6.98931 121.459 7.54558C120.5 8.64018 119.567 9.7617 118.519 10.7845C118.413 10.8922 118.324 11.0268 118.226 11.1524Z" fill="white"/>
<path d="M74.5073 23.6057C75.8216 23.4532 77.1448 23.5519 78.468 23.507C78.8321 23.4981 79.1874 23.3904 79.5603 23.4263C79.5603 24.476 79.5603 25.5168 79.5603 26.5666C77.873 26.4948 76.1946 26.7011 74.5073 26.6563C74.5073 25.6424 74.5073 24.6196 74.5073 23.6057Z" fill="white"/>
<path d="M53.9756 11.1524C55.805 11.1793 57.6344 10.9909 59.4637 11.0627C59.6502 11.0716 59.8367 10.964 60.0321 11.0537C60.3696 11.9061 60.7692 12.7315 60.9113 13.6556C60.7425 13.7723 60.556 13.7902 60.3607 13.7902C58.8243 13.7633 57.2969 13.844 55.7694 13.8889C55.6185 13.8889 55.4764 13.8889 55.3343 13.844C54.9791 12.893 54.4995 12.0047 53.9756 11.1524Z" fill="white"/>
<path d="M60.7513 24.0633C60.6803 23.8031 60.4316 23.7672 60.2629 23.8121C59.659 23.9467 59.064 23.8928 58.4602 23.8749C57.3412 23.83 56.2312 24.0274 55.1211 23.9646C55.4142 23.0495 55.645 22.1253 55.8315 21.1833C55.9559 21.1025 56.098 21.0576 56.2489 21.0576C57.7053 21.0576 59.1706 21.0397 60.627 20.9769C61.1865 20.95 61.2753 21.1025 61.2042 21.6857C61.1687 22.4932 61.0177 23.2827 60.7513 24.0633Z" fill="white"/>
<path d="M166.341 23.516C166.341 22.5291 166.341 21.5421 166.341 20.5552C166.803 20.295 167.327 20.3847 167.815 20.3489C168.952 20.2681 170.088 20.3668 171.234 20.295C171.323 20.286 171.412 20.313 171.483 20.3758C171.483 21.3627 171.483 22.3496 171.483 23.3366C171.021 23.5788 170.506 23.525 170.017 23.5519C168.89 23.6237 167.762 23.525 166.625 23.6057C166.518 23.6147 166.421 23.5968 166.341 23.516Z" fill="white"/>
<path d="M171.474 20.3758C170.852 20.5283 170.213 20.4834 169.591 20.4565C168.508 20.4206 167.424 20.5552 166.341 20.5552C166.341 19.5683 166.341 18.5813 166.341 17.5944C168.055 17.6572 169.769 17.4957 171.483 17.5047C171.474 18.4647 171.474 19.4247 171.474 20.3758Z" fill="white"/>
<path d="M0.106649 31.1423C0.106649 30.3079 0.106649 29.4735 0.0888878 28.6481C0.0800073 28.352 0.186573 28.2443 0.47075 28.2713C0.630599 28.2892 0.790448 28.2713 0.959177 28.2713C2.41558 28.3341 3.8631 28.1636 5.31951 28.1815C5.32839 29.4646 5.33727 30.7476 5.34615 32.0396C5.13302 32.0306 5.12414 31.8511 5.13302 31.7166C5.15078 31.259 4.89324 31.1962 4.51138 31.1872C3.38356 31.1513 2.26461 31.3128 1.14567 31.2769C0.799328 31.268 0.426347 31.3756 0.106649 31.1423Z" fill="white"/>
<path d="M146.528 31.2141C145.818 30.4694 145.125 29.7068 144.477 28.9083C144.433 28.8186 144.468 28.7378 144.512 28.6571C145.179 27.3651 145.729 26.0193 146.386 24.7273C146.475 24.5568 146.511 24.3145 146.795 24.3235C147.408 24.9785 148.02 25.6334 148.624 26.2884C148.704 26.3692 148.811 26.432 148.828 26.5666C148.216 27.9842 147.523 29.3659 146.884 30.7655C146.795 30.945 146.715 31.1244 146.528 31.2141Z" fill="white"/>
<path d="M56.0537 18.8505C56.0449 18.4109 56.036 17.9712 56.036 17.5406C55.9561 17.3611 56.0449 17.1548 55.9738 16.9753C55.9383 16.7062 55.8228 16.446 55.8761 16.1678C56.0271 15.9704 56.2491 15.9435 56.4711 15.9435C56.9596 15.9345 57.4391 15.9256 57.9275 15.9435C58.8866 15.9794 59.8368 15.8538 60.7959 15.8448C60.9647 15.8448 61.16 15.782 61.2755 15.9794C61.2844 16.1768 61.2932 16.3832 61.3021 16.5805C61.3643 17.3073 61.3465 18.043 61.311 18.7697C61.1867 18.8954 61.0179 18.9043 60.8581 18.9043C59.4727 18.9133 58.0874 18.8864 56.702 18.9941C56.4622 19.012 56.2313 19.021 56.0537 18.8505Z" fill="white"/>
<path d="M225.902 31.2321C225.174 31.2321 224.455 31.1962 223.726 31.241C222.181 31.3397 220.636 31.25 219.1 31.3487C217.901 31.4205 216.711 31.3397 215.521 31.4295C214.89 31.4743 214.26 31.5012 213.62 31.5102C213.487 31.5102 213.389 31.5551 213.372 31.6986C213.016 31.4833 212.661 31.268 212.315 31.0526C212.217 30.7924 212.395 30.7027 212.572 30.622C212.679 30.5681 212.803 30.5592 212.919 30.5681C214.038 30.613 215.157 30.4335 216.276 30.4784C217.501 30.5233 218.718 30.3797 219.943 30.3797C220.192 30.3797 220.449 30.3797 220.671 30.5233C220.707 30.4874 220.743 30.4605 220.778 30.4246C220.893 30.2631 220.805 30.0747 220.849 29.8952C220.973 29.7606 221.142 29.7606 221.302 29.7606C222.625 29.7517 223.948 29.7696 225.263 29.6709C225.476 29.653 225.707 29.644 225.893 29.8145C225.902 30.272 225.902 30.7476 225.902 31.2321Z" fill="white"/>
<path d="M166.341 23.516C168.046 23.3097 169.769 23.534 171.474 23.3366C171.474 24.2338 171.474 25.131 171.474 26.0282C171.349 26.1538 171.181 26.1718 171.021 26.1628C169.671 26.109 168.321 26.2974 166.971 26.2525C166.758 26.2436 166.527 26.2794 166.341 26.109C166.341 25.2476 166.341 24.3863 166.341 23.516Z" fill="white"/>
<path d="M121.458 7.54558C121.503 7.0252 121.769 6.57659 121.982 6.11901C122.862 4.20794 123.776 2.30585 124.673 0.40375C124.727 0.278139 124.789 0.161501 124.771 0.017947C124.869 -0.00896946 124.94 0.0269192 125.002 0.0986964C125.535 0.699831 126.067 1.30096 126.6 1.9021C125.979 3.34662 125.25 4.7373 124.629 6.18182C124.584 6.28948 124.531 6.39715 124.416 6.45098C124.14 6.16387 123.874 5.86779 123.608 5.58068C123.501 5.46404 123.412 5.35638 123.27 5.54479C122.72 6.27154 121.982 6.80987 121.458 7.54558Z" fill="white"/>
<path d="M61.2667 15.9794C59.5794 16.0691 57.9009 16.0781 56.2136 16.0781C56.0982 16.0781 55.9828 16.1319 55.8762 16.1589C55.6986 15.3872 55.5121 14.6067 55.3345 13.8351C55.4144 13.7184 55.5387 13.7453 55.6631 13.7364C57.2171 13.7184 58.7623 13.5838 60.3076 13.6556C60.5118 13.6646 60.7161 13.5659 60.9203 13.6466C61.1157 14.4093 61.2223 15.1899 61.2667 15.9794Z" fill="white"/>
<path d="M146.786 24.3235C146.378 24.799 146.182 25.4002 145.907 25.9564C145.418 26.9434 145.045 27.9752 144.468 28.9173C143.873 28.3251 143.314 27.6881 142.781 27.0331C142.657 26.8357 142.754 26.6652 142.834 26.4858C143.376 25.2207 144.015 23.9915 144.575 22.7265C144.655 22.547 144.735 22.3317 145.001 22.3586C145.498 22.888 146.005 23.4084 146.502 23.9467C146.617 24.0543 146.759 24.153 146.786 24.3235Z" fill="white"/>
<path d="M189.59 11.7715C188.773 11.8971 187.956 11.9689 187.13 11.9509C185.274 11.906 183.409 12.1124 181.553 12.0406C181.384 12.0317 181.224 12.0496 181.144 12.238C180.318 11.7984 179.528 11.3049 178.747 10.8025C178.8 10.7217 178.889 10.6948 178.977 10.7038C179.741 10.7666 180.505 10.6051 181.269 10.6051C183.08 10.5961 184.892 10.5513 186.704 10.5154C186.908 10.5154 187.112 10.4526 187.307 10.4167C188.098 10.8204 188.853 11.287 189.59 11.7715Z" fill="white"/>
<path d="M56.054 18.8505C57.7945 18.8056 59.5351 18.7249 61.2846 18.7608C61.3645 19.2453 61.3379 19.7387 61.2935 20.2232C61.2935 20.7077 61.3379 21.1922 61.2046 21.6678C61.2668 21.1833 61.0359 21.0576 60.5919 21.0846C59.0112 21.2012 57.4216 21.2012 55.8408 21.1653C55.903 20.4027 55.974 19.6311 56.054 18.8505Z" fill="white"/>
<path d="M124.416 6.45995C124.789 5.4461 125.313 4.50402 125.748 3.51709C125.926 3.11334 126.103 2.70959 126.308 2.31482C126.379 2.16229 126.396 1.95593 126.609 1.91107C127.187 2.53015 127.791 3.12231 128.306 3.79522C128.226 4.38739 127.879 4.86291 127.64 5.3833C127.249 6.24462 126.876 7.11492 126.432 7.94933C126.352 8.10186 126.308 8.29027 126.112 8.35308C125.544 7.71605 124.984 7.088 124.416 6.45995Z" fill="white"/>
<path d="M220.681 30.5053C218.878 30.5053 217.075 30.604 215.272 30.622C214.438 30.6309 213.594 30.6758 212.75 30.6848C212.511 30.6848 212.36 30.7835 212.315 31.0347C211.498 30.5861 210.699 30.1016 209.917 29.5812C209.944 29.4466 210.033 29.4287 210.148 29.4287C210.708 29.4287 211.267 29.3479 211.818 29.3569C213.878 29.3748 215.938 29.1954 217.999 29.2492C218.185 29.2582 218.345 29.1954 218.514 29.1595C219.215 29.4825 219.846 29.9221 220.512 30.3079C220.601 30.3618 220.663 30.4156 220.681 30.5053Z" fill="white"/>
<path d="M141.369 25.4271C140.774 24.826 140.214 24.1979 139.681 23.5429C139.602 23.3994 139.637 23.2648 139.699 23.1212C140.312 21.8113 140.942 20.5103 141.537 19.1914C141.609 19.0389 141.662 18.8415 141.902 18.8595C142.479 19.4696 143.074 20.0707 143.58 20.7436C143.447 21.2191 143.198 21.6408 142.994 22.0894C142.514 23.1571 141.999 24.2069 141.511 25.2746C141.475 25.3374 141.431 25.3912 141.369 25.4271Z" fill="white"/>
<path d="M126.103 8.35308C126.751 6.97137 127.408 5.59863 128.066 4.21692C128.137 4.07336 128.225 3.92981 128.305 3.79523C128.9 4.39636 129.487 4.9975 129.993 5.67938C129.993 5.83191 129.948 5.96649 129.877 6.10107C129.291 7.29437 128.723 8.49663 128.172 9.70788C128.083 9.90526 127.995 10.1206 127.79 10.2372C127.204 9.62713 126.636 9.00805 126.103 8.35308Z" fill="white"/>
<path d="M151.413 36.4359C151.253 36.4897 151.137 36.418 151.031 36.2924C150.596 35.7989 150.16 35.3054 149.725 34.812C149.619 34.6235 149.734 34.471 149.805 34.3095C150.365 33.0265 151.004 31.7794 151.572 30.4963C151.661 30.299 151.723 30.0567 152.016 30.0657C152.558 30.6668 153.091 31.259 153.633 31.8601C153.393 32.551 153.011 33.1701 152.718 33.843C152.389 34.5966 152.034 35.3323 151.679 36.0681C151.599 36.2026 151.519 36.3282 151.413 36.4359Z" fill="white"/>
<path d="M146.528 31.2141C147.23 29.7158 147.931 28.2174 148.624 26.7191C148.669 26.6293 148.722 26.5755 148.819 26.5665C149.414 27.1138 149.938 27.724 150.453 28.352C149.761 29.8055 149.121 31.2859 148.393 32.7304C148.331 32.847 148.278 32.9727 148.127 33.0085C147.567 32.4343 147.035 31.8422 146.528 31.2141Z" fill="white"/>
<path d="M131.511 7.37511C132.106 7.97625 132.719 8.55046 133.207 9.25926C132.799 9.93218 132.497 10.6589 132.177 11.3677C131.884 12.0317 131.529 12.6687 131.254 13.3416C131.192 13.5031 131.103 13.6646 130.907 13.7274C130.375 13.1263 129.842 12.5341 129.309 11.933C129.202 11.7804 129.291 11.6459 129.353 11.5202C129.966 10.2821 130.499 9.01702 131.121 7.77886C131.192 7.60839 131.236 7.36614 131.511 7.37511Z" fill="white"/>
<path d="M130.908 13.7274C131.592 12.4264 132.195 11.0806 132.808 9.73479C132.897 9.54637 132.924 9.27721 133.217 9.25926C133.776 9.79759 134.309 10.3628 134.797 10.964C134.629 11.6638 134.229 12.2649 133.945 12.9199C133.599 13.7184 133.19 14.499 132.835 15.2975C132.782 15.4142 132.728 15.5398 132.595 15.6115C132.027 14.9835 131.467 14.3554 130.908 13.7274Z" fill="white"/>
<path d="M148.127 33.0086C148.802 31.591 149.468 30.1823 150.143 28.7647C150.214 28.6122 150.258 28.4238 150.445 28.352C150.995 28.8903 151.51 29.4735 151.999 30.0747C151.83 30.1644 151.75 30.3259 151.679 30.4874C151.04 31.8691 150.4 33.2598 149.761 34.6415C149.734 34.6953 149.734 34.7581 149.717 34.812C149.193 34.2108 148.66 33.6097 148.127 33.0086Z" fill="white"/>
<path d="M115.447 24.5927C116.512 24.5927 117.578 24.5927 118.644 24.5927C118.777 24.799 118.626 24.9605 118.546 25.122C118.164 25.9385 117.773 26.755 117.409 27.5804C117.223 27.9931 117.232 28.0021 117.667 28.0828C117.773 28.1008 117.915 28.0828 117.924 28.2533C117.365 28.2533 116.796 28.2533 116.237 28.2443C115.562 28.1905 114.878 28.2264 114.203 28.2264C113.919 28.2264 113.786 28.1098 113.901 27.8496C114.408 26.7639 114.869 25.6424 115.447 24.5927Z" fill="white"/>
<path d="M141.902 18.8595C141.618 19.0569 141.6 19.3888 141.467 19.667C140.889 20.8692 140.303 22.0715 139.735 23.2827C139.699 23.3635 139.699 23.4532 139.682 23.5429C139.113 22.9777 138.58 22.3766 138.083 21.7485C138.021 21.5691 138.128 21.4255 138.199 21.2909C138.776 20.0887 139.344 18.8774 139.904 17.6572C140.001 17.4508 140.072 17.1996 140.339 17.1189C140.872 17.6751 141.404 18.2494 141.902 18.8595Z" fill="white"/>
<path d="M58.5493 28.6391C57.9899 28.4328 57.4038 28.4956 56.8443 28.5584C55.903 28.666 54.9616 28.6212 54.0203 28.6122C53.3454 28.6032 52.6705 28.7378 51.9955 28.7199C51.8179 28.7109 51.6403 28.7109 51.4805 28.6122C52.1021 28.1098 52.6971 27.5714 53.2654 27.0062C55.2192 27.078 57.164 26.8537 59.1088 26.9254C59.2687 26.9344 59.4374 26.8716 59.5795 26.9972C59.2776 27.5625 58.9845 28.1456 58.5493 28.6391Z" fill="white"/>
<path d="M132.586 15.6115C132.772 15.1809 132.95 14.7413 133.145 14.3106C133.625 13.2788 134.113 12.247 134.593 11.2062C134.637 11.1075 134.682 11.0178 134.779 10.964C135.321 11.5472 135.898 12.1124 136.378 12.7494C135.667 14.0773 135.09 15.4859 134.424 16.8318C134.335 17.0022 134.3 17.1996 134.078 17.2624C133.545 16.751 133.065 16.1858 132.586 15.6115Z" fill="white"/>
<path d="M140.33 17.1189C139.823 17.9443 139.495 18.8505 139.068 19.7118C138.731 20.3847 138.411 21.0666 138.083 21.7485C137.541 21.2191 137.044 20.6449 136.573 20.0528C136.529 19.9451 136.573 19.8464 136.617 19.7567C137.221 18.4468 137.825 17.1458 138.447 15.8448C138.527 15.6833 138.589 15.4142 138.882 15.5308C139.406 16.0153 139.877 16.5626 140.33 17.1189Z" fill="white"/>
<path d="M131.511 7.37511C131.165 7.70708 131.041 8.16466 130.845 8.56841C130.339 9.60918 129.86 10.6679 129.371 11.7176C129.345 11.7804 129.327 11.8612 129.309 11.924C128.803 11.3587 128.297 10.7935 127.799 10.2283C128.545 8.71196 129.176 7.14184 130.002 5.6704C130.499 6.23565 131.094 6.72912 131.511 7.37511Z" fill="white"/>
<path d="M141.369 25.4271C141.626 24.5209 142.123 23.7224 142.514 22.879C142.843 22.1612 143.074 21.3806 143.58 20.7436C144.095 21.2461 144.61 21.7575 145.019 22.3586C144.876 22.4304 144.797 22.547 144.725 22.6816C144.095 24.0454 143.464 25.4091 142.843 26.7729C142.807 26.8537 142.807 26.9434 142.798 27.0331C142.283 26.5217 141.813 25.9923 141.369 25.4271Z" fill="white"/>
<path d="M166.341 26.1179C168.055 26.1718 169.76 25.9654 171.474 26.0282C171.474 26.6294 171.474 27.2215 171.474 27.8226C169.955 27.7598 168.437 27.9393 166.909 27.9124C166.527 27.9034 166.394 28.0739 166.403 28.4507C166.421 29.3748 166.412 30.3079 166.412 31.2321C166.412 32.3356 166.412 33.4482 166.412 34.5518C166.625 35.1708 166.634 35.7899 166.412 36.418C166.314 36.3911 166.332 36.3103 166.332 36.2385C166.341 32.865 166.341 29.4915 166.341 26.1179Z" fill="white"/>
<path d="M0.106537 31.1423C1.64286 31.2052 3.17031 31.0167 4.70664 31.0437C5.12402 31.0526 5.31051 31.1334 5.24835 31.582C5.23059 31.7345 5.17731 31.914 5.33715 32.0396C11.6423 32.0396 17.9386 32.0396 24.2438 32.0485C24.4214 32.0485 24.599 32.0575 24.7766 32.0665C24.6167 32.1921 24.4391 32.1383 24.2615 32.1383C19.324 32.1383 14.3864 32.1383 9.44883 32.1383C9.20018 32.1383 8.95152 32.1024 8.74727 32.3267C8.65846 32.4254 8.49862 32.4164 8.36541 32.4074C6.28737 32.3446 4.20933 32.551 2.12241 32.4971C1.44749 32.4792 0.772575 32.6497 0.0976562 32.5869C0.106537 32.0934 0.106537 31.6179 0.106537 31.1423Z" fill="white"/>
<path d="M117.924 28.2533C117.871 28.2264 117.818 28.1905 117.765 28.1905C117.063 28.1277 117.036 28.1187 117.329 27.4548C117.685 26.6383 118.084 25.8488 118.466 25.0413C118.537 24.8977 118.582 24.7452 118.644 24.5927C119.532 24.5927 120.42 24.5927 121.308 24.5927C121.406 24.7003 121.361 24.817 121.308 24.9246C120.828 26.0192 120.322 27.0959 119.807 28.1636C119.789 28.1995 119.745 28.2264 119.709 28.2533C119.114 28.2533 118.519 28.2533 117.924 28.2533Z" fill="white"/>
<path d="M166.421 36.409C166.421 35.7899 166.421 35.1708 166.421 34.5428C168.108 34.6056 169.787 34.3992 171.474 34.4531C171.483 35.0183 171.483 35.5835 171.492 36.1488C171.501 36.3552 171.447 36.4359 171.225 36.4359C169.618 36.418 168.019 36.418 166.421 36.409Z" fill="white"/>
<path d="M107.347 28.2264C107.152 28.1277 106.948 28.2085 106.744 28.1726C106.646 28.0649 106.699 27.9483 106.744 27.8406C107.214 26.8178 107.711 25.8129 108.164 24.7901C108.2 24.7093 108.28 24.6555 108.333 24.5837C109.195 24.5837 110.047 24.5837 110.908 24.5837C111.068 24.799 110.935 24.9874 110.837 25.1579C110.429 25.9475 110.109 26.7729 109.701 27.5625C109.488 27.9752 109.532 28.02 109.994 28.0559C110.296 28.0828 110.642 27.9124 110.891 28.2174C109.718 28.2713 108.529 28.2713 107.347 28.2264Z" fill="white"/>
<path d="M123.35 24.5927C124.211 24.5927 125.064 24.5927 125.925 24.5927C126.041 24.7273 125.988 24.8708 125.925 25.0054C125.464 26.0013 124.993 26.9882 124.54 27.9931C124.487 28.1008 124.407 28.1905 124.318 28.2713C123.457 28.2713 122.604 28.2713 121.743 28.2623C121.618 28.1277 121.681 27.9841 121.743 27.8496C122.213 26.8447 122.702 25.8488 123.146 24.8349C123.199 24.7362 123.279 24.6645 123.35 24.5927Z" fill="white"/>
<path d="M151.413 36.4359C151.599 36.0053 151.777 35.5656 151.972 35.135C152.461 34.1032 152.949 33.0803 153.446 32.0575C153.482 31.9857 153.562 31.9319 153.624 31.8691C154.201 32.4792 154.787 33.0803 155.302 33.7532C154.832 34.6325 154.503 35.5836 153.988 36.4359C153.127 36.4269 152.265 36.4269 151.413 36.4359Z" fill="white"/>
<path d="M124.327 28.2623C124.736 27.1856 125.277 26.1718 125.748 25.122C125.828 24.9516 125.943 24.7901 125.926 24.5837C126.787 24.5837 127.64 24.5837 128.501 24.5837C128.572 24.6645 128.572 24.7542 128.528 24.8349C127.995 25.9834 127.497 27.1497 126.902 28.2623C126.041 28.2713 125.189 28.2713 124.327 28.2623Z" fill="white"/>
<path d="M138.873 15.5398C138.438 15.7641 138.376 16.2396 138.189 16.6254C137.63 17.7649 137.097 18.9133 136.555 20.0617C136.12 19.6311 135.703 19.1735 135.33 18.689C135.223 18.5365 135.303 18.4019 135.365 18.2763C135.978 17.0112 136.529 15.7192 137.168 14.4631C137.257 14.2926 137.301 14.0414 137.586 14.0953C138.03 14.5618 138.509 14.9925 138.873 15.5398Z" fill="white"/>
<path d="M115.447 24.5927C115.42 24.9336 115.26 25.2207 115.127 25.5078C114.781 26.2615 114.425 27.0241 114.052 27.7688C113.901 28.0828 113.946 28.1815 114.31 28.1905C114.958 28.1995 115.606 28.1008 116.246 28.2533C115.003 28.2533 113.759 28.2443 112.507 28.2443C112.258 28.2174 112.001 28.2264 111.752 28.2354C111.504 28.2443 111.441 28.1187 111.486 27.9034C111.495 27.8765 111.504 27.8406 111.513 27.8137C112.001 26.728 112.463 25.6334 113.049 24.5927C113.848 24.5927 114.647 24.5927 115.447 24.5927Z" fill="white"/>
<path d="M137.594 14.0863C137.15 14.4721 137.017 15.0373 136.768 15.5308C136.298 16.4729 135.871 17.4329 135.436 18.3839C135.392 18.4737 135.365 18.5813 135.339 18.68C134.895 18.2314 134.468 17.7738 134.078 17.2714C134.646 16.0781 135.205 14.8848 135.783 13.7005C135.943 13.3685 135.987 12.9468 136.378 12.7584C136.795 13.1891 137.239 13.5928 137.594 14.0863Z" fill="white"/>
<path d="M113.049 24.5927C112.942 25.2028 112.56 25.6962 112.347 26.2705C112.143 26.7998 111.885 27.3023 111.637 27.8047C111.477 28.1187 111.592 28.1995 111.894 28.1905C112.099 28.1905 112.312 28.1367 112.498 28.2354C111.965 28.2713 111.432 28.2713 110.891 28.2264C110.527 28.1277 110.163 28.1995 109.79 28.1815C109.363 28.1636 109.31 28.1008 109.497 27.706C109.905 26.8357 110.331 25.9654 110.749 25.0861C110.829 24.9246 110.926 24.7721 110.909 24.5837C111.628 24.5927 112.338 24.5927 113.049 24.5927Z" fill="white"/>
<path d="M126.902 28.2713C126.965 27.8406 127.178 27.4638 127.364 27.0869C127.764 26.2615 128.163 25.445 128.501 24.5927C129.495 24.3145 129.957 25.0233 130.446 25.6783C130.011 26.3871 129.726 27.1677 129.353 27.9034C129.282 28.038 129.238 28.1726 129.122 28.2802C128.385 28.2713 127.639 28.2713 126.902 28.2713Z" fill="white"/>
<path d="M108.342 24.5927C107.987 25.6424 107.419 26.5935 106.983 27.6073C106.903 27.7957 106.824 27.9841 106.744 28.1726C106.122 28.1726 105.509 28.1726 104.888 28.1815C104.71 28.1815 104.586 28.1636 104.692 27.9303C105.207 26.8447 105.714 25.7591 106.22 24.6734C106.237 24.6375 106.282 24.6106 106.317 24.5837C106.992 24.5837 107.667 24.5837 108.342 24.5927Z" fill="white"/>
<path d="M123.35 24.5927C122.968 25.6783 122.4 26.6742 121.938 27.724C121.858 27.9034 121.734 28.0559 121.752 28.2623C121.068 28.2623 120.393 28.2623 119.709 28.2623C120.002 27.401 120.419 26.5935 120.81 25.786C120.997 25.4002 121.192 25.0144 121.307 24.6016C121.991 24.5927 122.666 24.5927 123.35 24.5927Z" fill="white"/>
<path d="M153.988 36.418C154.343 35.4849 154.672 34.5338 155.302 33.7353C156.137 34.5697 156.909 35.4579 157.753 36.418C156.421 36.418 155.204 36.418 153.988 36.418Z" fill="white"/>
<path d="M129.123 28.2713C129.371 27.4189 129.869 26.6832 130.179 25.8667C130.224 25.7411 130.313 25.6693 130.446 25.6693C131.201 26.5127 131.964 27.3561 132.772 28.2713C131.494 28.2713 130.304 28.2713 129.123 28.2713Z" fill="white"/>
<path d="M29.4565 4.78216C30.7709 4.78216 32.0941 4.77319 33.4084 4.77319C33.5238 4.77319 33.6481 4.74627 33.7369 4.84497C32.3161 4.80908 30.8863 4.88086 29.4565 4.78216Z" fill="white"/>
<path d="M61.2843 20.2232C61.2843 19.7387 61.2754 19.2453 61.2754 18.7608C61.2754 18.034 61.2843 17.3073 61.2843 16.5805C61.4175 17.8008 61.3997 19.012 61.2843 20.2232Z" fill="white"/>
<path d="M34.8735 4.87188C35.1755 4.88983 35.4952 4.78216 35.7882 4.93469C35.4863 4.94366 35.1755 4.97058 34.8735 4.87188Z" fill="white"/>
<path d="M36.6499 4.96161C36.8986 4.97955 37.1561 4.88086 37.387 5.02441C37.1383 5.03338 36.8897 5.0603 36.6499 4.96161Z" fill="white"/>
<path d="M37.9907 5.05133C38.2039 5.06927 38.4347 4.97955 38.6301 5.11413C38.417 5.1231 38.195 5.14105 37.9907 5.05133Z" fill="white"/>
<path d="M39.145 5.14105C39.3315 5.15899 39.5269 5.06927 39.6956 5.20385C39.5091 5.21283 39.3226 5.2218 39.145 5.14105Z" fill="white"/>
<path d="M55.9651 16.9753C56.1072 17.1548 56.0184 17.3521 56.0273 17.5406C55.9473 17.3611 55.9562 17.1637 55.9651 16.9753Z" fill="white"/>
<path d="M40.1221 5.23077C40.2819 5.23974 40.4507 5.16796 40.5927 5.29357C40.424 5.30255 40.2642 5.32049 40.1221 5.23077Z" fill="white"/>
<path d="M225.903 29.7965C224.224 29.8234 222.546 29.9401 220.858 29.8862C220.858 28.6301 220.858 27.374 220.858 26.1179C220.983 25.9923 221.151 25.9744 221.311 25.9833C222.635 26.0192 223.958 25.9205 225.272 25.8936C225.485 25.8847 225.716 25.8667 225.903 26.0372C225.903 27.2843 225.903 28.5404 225.903 29.7965Z" fill="white"/>
<path d="M225.911 16.2575C225.911 17.4239 225.911 18.5903 225.911 19.7567C225.521 19.981 225.094 19.963 224.668 19.981C223.54 20.0258 222.404 19.9182 221.276 20.0528C221.125 20.0707 220.983 20.0528 220.867 19.9361C220.867 18.7697 220.867 17.6034 220.867 16.437C221.24 16.2127 221.658 16.2306 222.066 16.2127C223.229 16.1588 224.393 16.2665 225.547 16.1409C225.672 16.123 225.805 16.1588 225.911 16.2575Z" fill="white"/>
<path d="M225.911 9.6181C225.911 10.7576 225.911 11.8881 225.911 13.0275C225.787 13.1442 225.618 13.1711 225.459 13.1621C224.135 13.1083 222.812 13.2877 221.489 13.2518C221.276 13.2429 221.045 13.2787 220.858 13.1083C220.858 11.9688 220.858 10.8383 220.858 9.69885C220.956 9.60016 221.089 9.57324 221.223 9.56427C222.635 9.44763 224.047 9.4566 225.459 9.47455C225.618 9.47455 225.778 9.49249 225.911 9.6181Z" fill="white"/>
<path d="M220.858 13.1173C222.546 13.1621 224.224 12.9648 225.903 13.0276C225.903 14.1042 225.903 15.1809 225.903 16.2575C224.588 16.4101 223.265 16.3114 221.951 16.3562C221.587 16.3652 221.231 16.4639 220.858 16.437C220.858 15.3244 220.858 14.2209 220.858 13.1173Z" fill="white"/>
<path d="M225.911 9.61821C224.224 9.61821 222.546 9.59129 220.858 9.70793C220.858 8.63127 220.858 7.55461 220.858 6.47795C221.08 6.26262 221.365 6.25365 221.649 6.25365C222.359 6.24468 223.07 6.24468 223.78 6.25365C224.206 6.25365 224.633 6.2357 225.059 6.18187C225.343 6.14598 225.654 6.09215 225.911 6.29851C225.911 7.40208 225.911 8.51463 225.911 9.61821Z" fill="white"/>
<path d="M220.858 19.9271C222.199 19.7746 223.558 19.8643 224.899 19.8284C225.236 19.8195 225.565 19.7118 225.903 19.7477C225.903 20.7974 225.903 21.8382 225.903 22.8879C225.485 23.1212 225.023 23.0853 224.57 23.1122C223.46 23.1661 222.341 23.0584 221.223 23.184C221.089 23.202 220.956 23.175 220.858 23.0764C220.867 22.0266 220.858 20.9769 220.858 19.9271Z" fill="white"/>
<path d="M220.867 23.0674C222.155 22.9059 223.443 23.0225 224.73 22.9687C225.121 22.9508 225.512 22.87 225.911 22.888C225.911 23.9377 225.911 24.9785 225.911 26.0282C224.233 26.0192 222.554 26.1807 220.867 26.1179C220.867 25.1041 220.867 24.0902 220.867 23.0674Z" fill="white"/>
<path d="M225.911 6.29846C224.233 6.49585 222.536 6.28051 220.858 6.4779C220.858 5.68835 220.858 4.8988 220.849 4.10028C220.849 3.84009 220.894 3.72345 221.195 3.67859C221.977 3.54401 222.758 3.63373 223.54 3.60681C224.17 3.58887 224.81 3.6427 225.431 3.51709C225.778 3.45429 225.938 3.57092 225.92 3.9657C225.893 4.74628 225.911 5.51788 225.911 6.29846Z" fill="white"/>
</g>
<defs>
<clipPath id="clip0_416_4249">
<rect width="226" height="36.5077" fill="white"/>
</clipPath>
</defs>
</svg>
