<svg width="64" height="64" viewBox="0 0 64 64" fill="none" xmlns="http://www.w3.org/2000/svg">
<circle cx="31.8433" cy="31.8434" r="26" transform="rotate(15 31.8433 31.8434)" fill="#02C76E"/>
<path d="M21.2825 27.9783L23.1719 20.927L25.3549 21.512L25.9068 25.9045L26.0903 25.9537L28.7453 22.4204L30.9669 23.0157L29.0775 30.067L27.5127 29.6477L29.1251 23.63L29.3421 23.7088L26.2537 27.7781L24.7468 27.3744L24.0972 22.3034L24.3438 22.3488L22.7314 28.3665L21.2825 27.9783ZM33.5653 31.4662C32.902 31.2884 32.3714 31.0151 31.9733 30.6462C31.5834 30.2725 31.3305 29.8252 31.2148 29.3041C31.099 28.7831 31.1248 28.2103 31.2922 27.5856L32.4129 23.4032L33.997 23.8276L32.8608 28.068C32.778 28.3771 32.7635 28.6631 32.8173 28.926C32.8792 29.1842 33.0033 29.4038 33.1894 29.5848C33.382 29.7675 33.6393 29.902 33.9613 29.9883C34.2897 30.0763 34.5798 30.0885 34.8315 30.0248C35.0897 29.9628 35.3069 29.8347 35.4832 29.6403C35.6595 29.446 35.7899 29.1911 35.8745 28.8756L37.0107 24.6351L38.5948 25.0596L37.4741 29.2421C37.3068 29.8667 37.0427 30.3757 36.6819 30.7691C36.3212 31.1624 35.8785 31.4234 35.354 31.552C34.8313 31.6742 34.235 31.6456 33.5653 31.4662ZM40.2078 30.1816L39.3228 25.2547L40.9456 25.6895L41.546 29.36L41.2892 29.198L42.1006 29.4154L41.7779 29.4221L43.9882 26.5048L45.5241 26.9163L42.4584 30.7846L40.2078 30.1816ZM39.8386 32.9504L40.6151 30.0526L42.1702 30.4693L41.3937 33.3671L39.8386 32.9504ZM10.3249 32.196L10.6924 30.8244L11.9578 31.1634C12.2025 31.229 12.4247 31.2368 12.6244 31.1868C12.8306 31.1385 13.0053 31.0403 13.1485 30.8924C13.2934 30.7379 13.3969 30.5448 13.459 30.313C13.5246 30.0683 13.5324 29.8461 13.4824 29.6463C13.4341 29.4401 13.3319 29.2678 13.1757 29.1293C13.0277 28.9861 12.8314 28.8818 12.5867 28.8162L11.3213 28.4772L11.6889 27.1055L12.8769 27.4239C13.4758 27.5844 13.961 27.8213 14.3325 28.1348C14.7105 28.4501 14.963 28.8214 15.09 29.2489C15.2235 29.678 15.2212 30.1502 15.0832 30.6653L15.0418 30.8199C14.9072 31.3222 14.6739 31.729 14.342 32.0404C14.0183 32.347 13.614 32.5424 13.129 32.6264C12.6505 32.7121 12.1118 32.6748 11.513 32.5143L10.3249 32.196ZM8.39301 33.8421L10.2979 26.7328L11.882 27.1573L9.97713 34.2665L8.39301 33.8421ZM14.8357 35.5684L16.7406 28.4591L18.3247 28.8836L16.4198 35.9928L14.8357 35.5684ZM19.1147 36.7149L17.8603 33.128L19.599 33.5939L20.95 37.2067L19.1147 36.7149ZM16.6004 33.6187L16.9343 32.3726L18.673 32.8385C18.9048 32.9006 19.1165 32.909 19.3081 32.8637C19.5078 32.8137 19.6752 32.7171 19.8102 32.5738C19.9534 32.4258 20.0552 32.2392 20.1156 32.0138C20.176 31.7884 20.1803 31.579 20.1286 31.3857C20.085 31.1877 19.9884 31.0203 19.8386 30.8836C19.6971 30.7421 19.5104 30.6404 19.2786 30.5782L17.5399 30.1124L17.8997 28.7697L19.5128 29.202C20.0988 29.359 20.5833 29.5854 20.9665 29.8813C21.3513 30.1708 21.6131 30.5205 21.7517 30.9303C21.8904 31.3402 21.889 31.8091 21.7475 32.3372L21.7061 32.4917C21.5663 33.0133 21.3307 33.4161 20.9993 33.6999C20.676 33.9791 20.2753 34.1478 19.7973 34.2061C19.3274 34.2597 18.7995 34.2079 18.2135 34.0509L16.6004 33.6187ZM25.1381 38.5256C24.5006 38.3548 23.9729 38.096 23.5551 37.7494C23.1454 37.3981 22.8343 37.0007 22.6218 36.5573C22.4111 36.1074 22.2854 35.6492 22.2447 35.1828C22.2105 34.7181 22.246 34.2894 22.3512 33.8966L22.4082 33.6841C22.5255 33.2462 22.7184 32.8354 22.9868 32.4518C23.2634 32.0635 23.6061 31.7378 24.0148 31.4746C24.4235 31.2114 24.8905 31.0398 25.4158 30.9597C25.9428 30.8731 26.5154 30.9127 27.1336 31.0783C27.7518 31.244 28.2675 31.496 28.6806 31.8345C29.0955 32.1665 29.4141 32.5486 29.6365 32.9809C29.8588 33.4132 29.9927 33.8666 30.0381 34.3412C30.0852 34.8094 30.0501 35.2624 29.9327 35.7003L29.8758 35.9128C29.7705 36.3056 29.5837 36.6938 29.3153 37.0774C29.0468 37.461 28.7089 37.7949 28.3015 38.0791C27.8957 38.3569 27.4244 38.5446 26.8875 38.6423C26.3588 38.7353 25.7756 38.6964 25.1381 38.5256ZM25.5341 37.0477C25.869 37.1375 26.1839 37.1597 26.479 37.1146C26.7805 37.0711 27.0523 36.9714 27.2942 36.8154C27.5426 36.6611 27.7514 36.4616 27.9204 36.217C28.0895 35.9725 28.2154 35.6956 28.2982 35.3865C28.3862 35.0581 28.415 34.7449 28.3844 34.4468C28.362 34.144 28.281 33.8669 28.1413 33.6156C28.0097 33.3595 27.8266 33.1413 27.5919 32.9611C27.3572 32.7809 27.0725 32.6459 26.7376 32.5562C26.4028 32.4664 26.0887 32.441 25.7953 32.4797C25.502 32.5184 25.2311 32.6149 24.9827 32.7692C24.7424 32.9188 24.5369 33.1191 24.3661 33.3701C24.1971 33.6147 24.0686 33.9012 23.9806 34.2296C23.8977 34.5387 23.8684 34.8414 23.8925 35.1378C23.9166 35.4341 23.9945 35.7103 24.126 35.9664C24.264 36.2243 24.4494 36.4465 24.6824 36.6332C24.9153 36.8198 25.1993 36.958 25.5341 37.0477ZM30.1546 39.6731L32.044 32.6218L34.6424 33.318L35.7535 39.7964L36.0819 39.8844L35.8422 40.0065L37.4339 34.066L38.9214 34.4646L37.032 41.5159L34.4144 40.8145L33.3032 34.3361L32.9748 34.2481L33.2146 34.126L31.6228 40.0665L30.1546 39.6731ZM40.0165 42.3155L41.5876 36.4524L43.1717 36.8768L41.6006 42.74L40.0165 42.3155ZM39.5556 36.115L39.9257 34.7337L45.4798 36.2219L45.1097 37.6032L39.5556 36.115ZM47.7204 44.5765C47.0829 44.4057 46.5552 44.147 46.1374 43.8003C45.7277 43.449 45.4166 43.0516 45.2041 42.6082C44.9934 42.1583 44.8677 41.7001 44.827 41.2337C44.7928 40.769 44.8283 40.3403 44.9335 39.9475L44.9905 39.735C45.1078 39.2971 45.3007 38.8863 45.5691 38.5027C45.8457 38.1144 46.1884 37.7887 46.5971 37.5255C47.0058 37.2623 47.4728 37.0907 47.9981 37.0106C48.5251 36.924 49.0977 36.9636 49.7159 37.1292C50.3341 37.2949 50.8498 37.5469 51.2629 37.8854C51.6778 38.2174 51.9964 38.5995 52.2188 39.0318C52.4411 39.4641 52.575 39.9175 52.6204 40.3921C52.6675 40.8603 52.6324 41.3133 52.515 41.7512L52.4581 41.9637C52.3528 42.3565 52.166 42.7447 51.8976 43.1283C51.6291 43.5119 51.2912 43.8458 50.8838 44.13C50.478 44.4078 50.0067 44.5956 49.4698 44.6933C48.941 44.7862 48.3579 44.7473 47.7204 44.5765ZM48.1164 43.0986C48.4513 43.1884 48.7662 43.2106 49.0613 43.1655C49.3628 43.122 49.6346 43.0223 49.8765 42.8663C50.1249 42.712 50.3336 42.5125 50.5027 42.268C50.6718 42.0234 50.7977 41.7465 50.8805 41.4374C50.9685 41.109 50.9973 40.7958 50.9667 40.4977C50.9443 40.1949 50.8632 39.9179 50.7235 39.6665C50.592 39.4104 50.4089 39.1922 50.1742 39.012C49.9395 38.8318 49.6548 38.6968 49.3199 38.6071C48.9851 38.5174 48.671 38.4919 48.3776 38.5306C48.0842 38.5693 47.8134 38.6658 47.565 38.8201C47.3247 38.9697 47.1192 39.17 46.9484 39.421C46.7794 39.6656 46.6508 39.9521 46.5628 40.2805C46.48 40.5896 46.4507 40.8923 46.4748 41.1887C46.4989 41.485 46.5767 41.7612 46.7083 42.0173C46.8462 42.2752 47.0317 42.4974 47.2647 42.6841C47.4976 42.8707 47.7815 43.0089 48.1164 43.0986Z" fill="black"/>
</svg>
