<svg width="582" height="323" viewBox="0 0 582 323" fill="none" xmlns="http://www.w3.org/2000/svg">
<path d="M723.977 28.4705C714.009 26.1944 705.942 31.5052 702.467 40.6348C698.967 49.8402 695.34 58.9951 691.535 68.0741C691.18 68.8833 690.85 69.7179 690.495 70.5271C690.317 70.9065 689.962 71.7663 689.886 71.9687C688.947 74.1183 688.034 76.2679 687.096 78.3922C684.965 83.2225 682.809 88.0276 680.602 92.782C672.206 110.839 663.075 128.592 653.03 145.789C643.061 162.885 632.078 179.323 620.181 195.154C620.055 195.306 619.852 195.584 619.649 195.837C618.939 196.748 619.243 196.343 619.649 195.837C619.268 196.318 618.913 196.798 618.533 197.253C617.315 198.771 616.098 200.288 614.88 201.806C612.039 205.27 609.147 208.684 606.18 212.048C600.574 218.396 594.74 224.566 588.703 230.509C582.336 236.756 575.716 242.749 568.842 248.44C567.218 249.78 565.544 251.07 563.921 252.41C563.819 252.486 563.768 252.537 563.692 252.587C562.855 253.219 562.018 253.852 561.181 254.459C557.376 257.266 553.521 259.972 549.564 262.577C542.182 267.407 534.547 271.807 526.608 275.677C524.756 276.562 522.904 277.422 521.027 278.256C520.799 278.357 519.987 278.686 519.455 278.939C518.947 279.141 518.364 279.369 518.161 279.445C514.179 281.013 510.12 282.404 506.011 283.618C501.927 284.831 497.818 285.868 493.633 286.678C491.73 287.057 489.802 287.335 487.875 287.689C486.708 287.79 485.516 287.942 484.349 288.043C480.417 288.347 476.435 288.347 472.503 288.043C472.351 288.043 472.072 288.018 471.768 287.993C471.235 287.942 470.474 287.841 470.195 287.79C468.14 287.436 466.086 286.981 464.056 286.45C462.255 285.969 460.531 285.363 458.755 284.781C458.577 284.73 458.4 284.68 458.248 284.629C457.69 284.376 457.132 284.123 456.599 283.87C454.773 282.96 452.972 281.948 451.247 280.861C450.537 280.406 449.852 279.9 449.141 279.419C449.04 279.344 448.964 279.242 448.837 279.116C447.518 277.877 446.174 276.688 444.956 275.323C444.652 274.968 444.347 274.614 444.043 274.235C443.84 273.957 443.637 273.653 443.51 273.451C442.47 271.656 441.405 269.936 440.466 268.09C440.416 268.014 440.39 267.963 440.365 267.887C439.984 266.775 439.604 265.687 439.249 264.549C441.659 262.298 444.068 260.048 446.402 257.772C475.496 229.346 502.764 197.81 525.39 164.023C535.613 148.748 544.82 132.664 552.76 116.099C561.283 98.3204 568.207 80.1119 570.693 60.4619C573.154 40.8877 568.74 19.4421 551.948 7.30307C537.109 -3.41973 516.005 -1.2954 501.014 7.93532C484.07 18.3799 471.362 36.6138 461.266 53.3302C451.069 70.2237 442.293 88.2552 434.531 106.388C416.699 147.939 404.802 192.802 402.139 238.046C401.885 242.32 401.835 246.594 402.038 250.842C400.719 251.93 399.4 252.992 398.081 254.054C397.928 254.18 397.751 254.307 397.599 254.408C393.794 257.215 389.938 259.921 385.981 262.526C378.6 267.356 370.965 271.757 363.025 275.626C361.174 276.511 359.322 277.371 357.445 278.206C357.217 278.307 356.405 278.635 355.872 278.888C355.365 279.091 354.782 279.318 354.579 279.394C350.596 280.962 346.538 282.353 342.428 283.567C338.345 284.781 334.235 285.818 330.05 286.627C328.148 287.006 326.22 287.285 324.292 287.639C323.125 287.74 321.958 287.891 320.766 287.993C316.809 288.296 312.852 288.296 308.921 287.993C308.768 287.993 308.489 287.967 308.185 287.942C307.652 287.891 306.891 287.79 306.638 287.74C304.583 287.386 302.528 286.93 300.499 286.399C298.698 285.919 296.973 285.312 295.198 284.73C295.02 284.68 294.843 284.629 294.716 284.579C294.158 284.326 293.6 284.073 293.042 283.82C291.215 282.909 289.414 281.898 287.69 280.81C286.979 280.355 286.294 279.849 285.584 279.369C285.483 279.293 285.407 279.192 285.28 279.065C283.961 277.826 282.642 276.638 281.424 275.272C281.095 274.918 280.815 274.564 280.511 274.185C280.308 273.906 280.08 273.603 279.978 273.401C278.938 271.605 277.873 269.885 276.935 268.039C276.884 267.963 276.858 267.913 276.833 267.837C276.453 266.749 276.072 265.637 275.742 264.549C276.656 263.715 277.594 262.88 278.507 262.045C278.482 262.02 278.431 261.995 278.406 261.97C279.902 260.553 281.399 259.162 282.87 257.721C311.964 229.295 339.232 197.759 361.858 163.972C372.081 148.697 381.289 132.613 389.228 116.048C397.751 98.2699 404.676 80.0613 407.161 60.4113C409.622 40.8371 405.208 19.3915 388.416 7.2525C373.577 -3.47031 352.473 -1.34598 337.482 7.88474C320.538 18.3294 307.83 36.5632 297.734 53.2796C287.537 70.1731 278.761 88.2046 270.999 106.337C253.167 147.888 241.271 192.752 238.607 237.995C238.354 242.244 238.303 246.518 238.506 250.741C237.846 251.272 237.212 251.778 236.553 252.309C236.451 252.385 236.4 252.435 236.324 252.486C235.487 253.118 234.65 253.75 233.813 254.357C230.008 257.165 226.153 259.871 222.196 262.475C214.814 267.306 207.179 271.706 199.24 275.575C197.388 276.461 195.536 277.32 193.659 278.155C193.431 278.256 192.619 278.585 192.087 278.838C191.579 279.04 190.996 279.268 190.793 279.344C186.811 280.912 182.752 282.302 178.643 283.516C174.559 284.73 170.45 285.767 166.265 286.576C164.362 286.956 162.434 287.234 160.507 287.588C159.34 287.689 158.173 287.841 156.981 287.942C153.024 288.246 149.067 288.246 145.135 287.942C144.983 287.942 144.704 287.917 144.399 287.891C143.867 287.841 143.106 287.74 142.852 287.689C140.798 287.335 138.743 286.88 136.714 286.349C134.913 285.868 133.188 285.261 131.412 284.68C131.235 284.629 131.057 284.579 130.93 284.528C130.372 284.275 129.814 284.022 129.282 283.769C127.455 282.859 125.654 281.847 123.929 280.76C123.219 280.305 122.534 279.799 121.799 279.318C121.723 279.242 121.621 279.141 121.494 279.015C120.175 277.776 118.831 276.587 117.613 275.221C117.309 274.867 117.005 274.513 116.7 274.134C116.497 273.856 116.269 273.552 116.168 273.35C115.128 271.554 114.062 269.835 113.124 267.989C113.073 267.913 113.048 267.862 113.022 267.786C112.642 266.673 112.261 265.586 111.906 264.448C114.316 262.197 116.726 259.946 119.059 257.67C148.154 229.245 175.422 197.709 198.048 163.922C208.27 148.647 217.478 132.563 225.417 115.998C233.94 98.2193 240.865 80.0107 243.351 60.3607C245.811 40.7865 241.397 19.3409 224.605 7.20192C209.767 -3.52088 188.662 -1.39656 173.671 7.83416C156.727 18.2788 144.019 36.5126 133.924 53.229C123.727 70.1225 114.95 88.154 107.188 106.287C89.3562 147.838 77.4597 192.701 74.7964 237.944C74.5427 242.218 74.492 246.492 74.6949 250.741C73.2491 251.955 71.7779 253.144 70.3067 254.307C70.1291 254.459 69.3681 255.04 68.8862 255.394C68.4296 255.723 67.9223 256.102 67.7701 256.229C64.3204 258.783 60.7692 261.236 57.1419 263.563C53.5654 265.839 49.9127 268.014 46.184 270.012C44.4338 270.947 42.6836 271.833 40.908 272.692C40.0202 273.122 39.1324 273.527 38.2446 273.932C37.8895 274.083 37.5597 274.235 37.2553 274.362C33.5773 275.778 29.8993 277.093 26.1198 278.155C24.2935 278.661 22.4418 279.116 20.5648 279.521C19.677 279.723 12.9044 280.836 17.4955 280.203C8.4654 281.392 -0.463275 287.36 0.0186707 297.628C0.399154 306.049 7.8059 316.342 17.4955 315.053C42.2777 311.765 64.2443 301.27 84.0802 287.234C86.287 291.28 88.8743 295.15 91.9942 298.791C105.235 314.243 126.035 321.426 145.845 322.791C164.54 324.081 184.274 319.251 201.523 312.321C214.18 307.238 226.178 301.067 237.618 293.835C237.593 293.91 237.567 293.986 237.516 294.062C241.042 291.887 244.492 289.611 247.866 287.209C250.072 291.255 252.66 295.124 255.78 298.766C269.021 314.218 289.82 321.4 309.631 322.766C328.325 324.056 348.06 319.225 365.308 312.296C377.839 307.263 389.761 301.143 401.099 294.012C401.099 294.012 401.099 294.037 401.099 294.062C404.625 291.887 408.075 289.611 411.448 287.209C413.655 291.255 416.242 295.124 419.362 298.766C432.603 314.218 453.403 321.4 473.213 322.766C491.908 324.056 511.642 319.225 528.891 312.296C547.484 304.836 564.732 295.023 580.713 282.96C648.768 231.546 692.169 156.057 724.586 78.7463C728.619 69.1362 732.475 59.425 736.178 49.6885C739.425 41.1406 732.576 30.1902 723.977 28.2429M478.921 168.828C479.352 168.272 480.341 167.007 478.921 168.828V168.828ZM534.953 39.7497C534.852 39.4715 534.725 39.1933 534.623 38.9404C534.826 39.3703 534.979 39.6738 534.953 39.7497ZM453.428 154.994C456.396 145.587 459.719 136.28 463.397 127.125C463.955 125.734 464.513 124.369 465.096 122.978C464.792 123.686 464.006 125.456 465.426 122.194C466.39 119.994 467.354 117.819 468.343 115.644C470.296 111.37 472.326 107.172 474.38 102.948C482.218 86.7884 490.487 70.7042 501.115 56.1626C501.242 55.9856 501.699 55.3787 502.054 54.8729C502.434 54.3924 503.043 53.6084 503.195 53.4314C504.514 51.8128 505.859 50.2196 507.254 48.6516C510.298 45.2375 513.824 42.3039 516.944 38.991C517.349 38.7128 517.755 38.4346 518.161 38.1564C519.353 37.3977 520.698 36.8161 521.89 36.0827C522.321 35.9309 522.778 35.7539 523.234 35.6275C523.919 35.4251 524.959 35.2987 525.923 35.147C525.416 35.0711 525.492 34.7676 526.583 34.7929C526.862 34.7929 527.166 34.7929 527.47 34.7929C527.673 34.717 527.876 34.6159 528.054 34.5147C527.876 34.6412 527.724 34.6917 527.546 34.7929C527.927 34.7929 528.307 34.7676 528.713 34.7929C528.865 34.7929 529.271 34.8182 529.677 34.8688C529.677 34.8688 529.702 34.8688 529.728 34.8688C530.21 35.0205 530.717 35.1722 531.199 35.2987C531.427 35.3998 531.63 35.5263 531.833 35.6275C531.757 35.5516 531.681 35.4757 531.63 35.3998C531.63 35.3998 531.656 35.3998 531.681 35.3998C531.732 35.3998 531.757 35.3998 531.808 35.3998C531.935 35.501 532.061 35.6527 532.239 35.8045C532.442 35.9056 532.62 36.0068 532.772 36.0827C532.569 35.8551 532.467 35.678 532.543 35.678C532.594 35.678 532.797 35.8804 533.025 36.2344C533.533 36.5379 533.431 36.5379 533.127 36.3861C533.178 36.462 533.254 36.5632 533.304 36.6643C533.178 36.5379 533.051 36.4114 532.949 36.285C532.822 36.2091 532.67 36.1332 532.493 36.0321C532.772 36.3103 533.051 36.5632 533.127 36.6138C533.254 36.7149 533.355 36.8161 533.457 36.8919C533.786 37.423 534.116 38.0047 534.395 38.5105C534.547 38.9151 534.699 39.3197 534.826 39.7497C535.08 40.5589 535.308 41.3682 535.511 42.1775C535.714 42.9867 535.866 43.796 536.044 44.6053C536.374 46.0721 536.577 46.2744 536.602 45.9962C537.008 48.6516 536.348 53.052 536.221 54.797C536.145 55.8339 535.79 58.7422 535.866 58.4893C535.562 60.2848 535.232 62.0804 534.852 63.876C533.051 71.9939 530.413 79.9096 527.318 87.6229C527.115 88.154 526.887 88.6851 526.659 89.2162C526.506 89.5702 526.303 90.0507 526.202 90.2783C525.39 92.0739 524.604 93.8442 523.767 95.6397C521.966 99.509 520.064 103.353 518.085 107.147C514.61 113.848 510.957 120.474 507.152 127.024C502.206 135.547 496.854 143.842 491.223 151.934C488.56 155.753 485.845 159.496 483.081 163.239C481.685 165.11 480.29 166.956 478.87 168.803C478.718 168.98 478.591 169.157 478.388 169.41C477.297 170.775 476.232 172.141 475.141 173.507C463.853 187.593 451.881 201.123 439.604 214.349C442.648 194.244 447.264 174.366 453.352 154.969M151.451 168.803C151.882 168.246 152.897 166.982 151.451 168.803V168.803ZM207.585 39.9773C207.458 39.6991 207.357 39.4209 207.255 39.168C207.458 39.5979 207.61 39.9014 207.585 39.9773ZM126.06 155.197C129.028 145.789 132.351 136.482 136.029 127.328C136.587 125.937 137.145 124.571 137.728 123.18C137.424 123.888 136.638 125.659 138.058 122.396C139.022 120.196 139.986 118.021 140.975 115.846C142.928 111.572 144.958 107.374 147.012 103.151C154.85 86.9907 163.119 70.9065 173.747 56.3649C173.874 56.1879 174.331 55.581 174.686 55.0752C175.066 54.5947 175.675 53.8107 175.827 53.6337C177.146 52.0151 178.491 50.4219 179.886 48.8539C182.93 45.4398 186.456 42.5062 189.576 39.1933C189.981 38.9151 190.387 38.6369 190.793 38.3587C191.985 37.6 193.33 37.0184 194.522 36.285C194.978 36.1332 195.41 35.9562 195.866 35.8298C196.551 35.6275 197.591 35.501 198.555 35.3493C198.073 35.2734 198.124 34.9699 199.214 34.9952C199.493 34.9952 199.798 34.9952 200.077 34.9952C200.305 34.9193 200.483 34.8182 200.66 34.717C200.483 34.8435 200.331 34.8941 200.153 34.9952C200.533 34.9952 200.939 34.9699 201.32 34.9952C201.472 34.9952 201.878 35.0205 202.284 35.0711C202.284 35.0711 202.309 35.0711 202.334 35.0711C202.816 35.2228 203.324 35.3746 203.806 35.501C204.009 35.6022 204.237 35.7286 204.44 35.8298C204.338 35.7539 204.288 35.678 204.237 35.6022C204.237 35.6022 204.262 35.6022 204.288 35.6022C204.338 35.6022 204.364 35.6022 204.414 35.6022C204.516 35.7033 204.668 35.8551 204.82 36.0068C205.023 36.108 205.201 36.2091 205.353 36.285C205.15 36.0574 205.049 35.8804 205.125 35.8804C205.175 35.8804 205.378 36.0827 205.607 36.4367C206.139 36.7402 206.038 36.7402 205.708 36.5885C205.759 36.6643 205.835 36.7655 205.886 36.8666C205.759 36.7402 205.632 36.6138 205.53 36.4873C205.404 36.4114 205.251 36.3356 205.074 36.2344C205.353 36.5126 205.632 36.7655 205.708 36.8161C205.835 36.9172 205.936 37.0184 206.038 37.0943C206.368 37.6253 206.697 38.207 206.976 38.7128C207.129 39.1174 207.281 39.5221 207.408 39.952C207.661 40.7612 207.889 41.5705 208.092 42.3798C208.295 43.1891 208.448 43.9983 208.625 44.8076C208.955 46.2744 209.158 46.4767 209.183 46.1985C209.589 48.8539 208.929 53.2543 208.803 54.9993C208.752 56.0362 208.371 58.9445 208.448 58.6916C208.143 60.4872 207.813 62.2827 207.433 64.0783C205.657 72.1963 202.994 80.1119 199.899 87.8252C199.696 88.3563 199.468 88.8874 199.24 89.4185C199.088 89.7725 198.885 90.2531 198.783 90.4807C197.972 92.2762 197.185 94.0465 196.348 95.8421C194.547 99.7114 192.645 103.555 190.666 107.349C187.191 114.051 183.539 120.676 179.734 127.226C174.787 135.749 169.435 144.044 163.804 152.137C161.166 155.955 158.427 159.698 155.662 163.441C154.267 165.313 152.872 167.159 151.451 169.005C151.299 169.182 151.172 169.359 150.969 169.612C149.904 170.978 148.813 172.343 147.722 173.709C136.435 187.795 124.488 201.325 112.185 214.552C115.229 194.446 119.846 174.569 125.933 155.172M36.8241 274.69C36.2914 274.893 36.3929 274.867 36.8241 274.69V274.69ZM112.946 267.837C111.779 265.561 112.616 267.053 112.946 267.837V267.837ZM289.871 155.197C292.839 145.789 296.162 136.482 299.84 127.328C300.398 125.937 300.956 124.571 301.539 123.18C301.235 123.888 300.448 125.659 301.869 122.396C302.833 120.196 303.797 118.021 304.786 115.846C306.739 111.572 308.768 107.374 310.823 103.151C318.661 86.9907 326.93 70.9065 337.558 56.3649C337.685 56.1879 338.142 55.581 338.497 55.0752C338.877 54.5947 339.486 53.8107 339.613 53.6337C340.932 52.0151 342.276 50.4219 343.671 48.8539C346.715 45.4398 350.241 42.5062 353.361 39.1933C353.767 38.9151 354.173 38.6369 354.579 38.3587C355.771 37.6 357.115 37.0184 358.307 36.285C358.764 36.1332 359.195 35.9562 359.652 35.8298C360.337 35.6275 361.377 35.501 362.34 35.3493C361.858 35.2734 361.909 34.9699 363 34.9952C363.279 34.9952 363.583 34.9952 363.862 34.9952C364.091 34.9193 364.268 34.8182 364.446 34.717C364.268 34.8435 364.116 34.8941 363.938 34.9952C364.319 34.9952 364.725 34.9699 365.105 34.9952C365.257 34.9952 365.663 35.0205 366.069 35.0711C366.069 35.0711 366.095 35.0711 366.12 35.0711C366.602 35.2228 367.109 35.3746 367.591 35.501C367.794 35.6022 368.022 35.7286 368.225 35.8298C368.124 35.7539 368.073 35.678 368.022 35.6022C368.022 35.6022 368.048 35.6022 368.073 35.6022C368.124 35.6022 368.149 35.6022 368.2 35.6022C368.301 35.7033 368.454 35.8551 368.606 36.0068C368.809 36.108 368.986 36.2091 369.138 36.285C368.935 36.0574 368.834 35.8804 368.91 35.8804C368.961 35.8804 369.164 36.0827 369.392 36.4367C369.899 36.7402 369.798 36.7402 369.494 36.5885C369.544 36.6643 369.62 36.7655 369.671 36.8666C369.544 36.7402 369.417 36.6138 369.316 36.4873C369.189 36.4114 369.037 36.3356 368.859 36.2344C369.138 36.5126 369.417 36.7655 369.494 36.8161C369.62 36.9172 369.722 37.0184 369.823 37.0943C370.153 37.6253 370.483 38.207 370.762 38.7128C370.914 39.1174 371.066 39.5221 371.193 39.952C371.447 40.7612 371.675 41.5705 371.878 42.3798C372.081 43.1891 372.233 43.9983 372.411 44.8076C372.74 46.2744 372.943 46.4767 372.969 46.1985C373.374 48.8539 372.715 53.2543 372.588 54.9993C372.512 56.0362 372.157 58.9445 372.233 58.6916C371.929 60.4872 371.599 62.2827 371.218 64.0783C369.443 72.1963 366.779 80.1119 363.685 87.8252C363.482 88.3563 363.254 88.8874 363.025 89.4185C362.873 89.7725 362.67 90.2531 362.569 90.4807C361.757 92.2762 360.971 94.0465 360.134 95.8421C358.333 99.7114 356.43 103.555 354.452 107.349C350.977 114.051 347.324 120.676 343.519 127.226C338.573 135.749 333.221 144.044 327.59 152.137C324.926 155.955 322.212 159.698 319.447 163.441C318.052 165.313 316.657 167.159 315.237 169.005C315.084 169.182 314.958 169.359 314.755 169.612C313.689 170.978 312.599 172.343 311.508 173.709C300.22 187.795 288.273 201.325 275.971 214.552C279.015 194.446 283.631 174.569 289.719 155.172M440.187 267.812C439.021 265.535 439.858 267.028 440.187 267.812V267.812Z" fill="#EEB943"/>
</svg>
