<svg width="447" height="196" viewBox="0 0 447 196" fill="none" xmlns="http://www.w3.org/2000/svg">
<path d="M439.102 17.2762C433.055 15.8951 428.163 19.1177 426.056 24.6577C423.932 30.2436 421.732 35.7989 419.425 41.3081C419.209 41.7992 419.009 42.3056 418.794 42.7967C418.686 43.0268 418.471 43.5486 418.425 43.6714C417.855 44.9758 417.302 46.2802 416.732 47.5693C415.44 50.5004 414.132 53.4161 412.794 56.3012C407.702 67.2582 402.163 78.0311 396.071 88.4664C390.025 98.8403 383.363 108.815 376.148 118.422C376.071 118.514 375.948 118.683 375.825 118.836C375.394 119.389 375.579 119.143 375.825 118.836C375.594 119.128 375.379 119.419 375.148 119.696C374.41 120.616 373.671 121.537 372.933 122.458C371.21 124.56 369.456 126.632 367.656 128.673C364.256 132.525 360.717 136.269 357.056 139.876C353.194 143.666 349.179 147.303 345.01 150.756C344.025 151.569 343.01 152.352 342.025 153.165C341.964 153.211 341.933 153.242 341.887 153.273C341.379 153.656 340.871 154.04 340.364 154.408C338.056 156.112 335.717 157.754 333.317 159.334C328.841 162.265 324.21 164.936 319.394 167.284C318.271 167.821 317.148 168.343 316.01 168.849C315.871 168.91 315.379 169.11 315.056 169.263C314.748 169.386 314.394 169.524 314.271 169.57C311.856 170.522 309.395 171.366 306.902 172.102C304.425 172.839 301.933 173.468 299.395 173.959C298.241 174.189 297.071 174.358 295.902 174.573C295.195 174.634 294.471 174.726 293.764 174.788C291.379 174.972 288.964 174.972 286.579 174.788C286.487 174.788 286.318 174.772 286.133 174.757C285.81 174.726 285.348 174.665 285.179 174.634C283.933 174.42 282.687 174.143 281.456 173.821C280.364 173.529 279.318 173.161 278.241 172.808C278.133 172.778 278.025 172.747 277.933 172.716C277.595 172.563 277.256 172.409 276.933 172.256C275.825 171.703 274.733 171.089 273.687 170.43C273.256 170.153 272.841 169.846 272.41 169.555C272.349 169.509 272.302 169.447 272.225 169.371C271.425 168.619 270.61 167.897 269.872 167.069C269.687 166.854 269.502 166.639 269.318 166.409C269.195 166.24 269.072 166.056 268.995 165.933C268.364 164.844 267.718 163.8 267.149 162.68C267.118 162.634 267.102 162.603 267.087 162.557C266.856 161.882 266.625 161.222 266.41 160.531C267.872 159.166 269.333 157.8 270.749 156.419C288.395 139.17 304.933 120.033 318.656 99.5309C324.856 90.2619 330.441 80.5018 335.256 70.4502C340.425 59.6619 344.625 48.6128 346.133 36.6889C347.625 24.8111 344.948 11.7977 334.764 4.43159C325.764 -2.07513 312.964 -0.786062 303.871 4.81524C293.595 11.1531 285.887 22.2176 279.764 32.3614C273.579 42.6125 268.256 53.5542 263.549 64.5573C252.733 89.7708 245.518 116.995 243.902 144.449C243.749 147.042 243.718 149.636 243.841 152.214C243.041 152.874 242.241 153.518 241.441 154.163C241.349 154.24 241.241 154.316 241.149 154.378C238.841 156.081 236.503 157.723 234.103 159.304C229.626 162.235 224.995 164.905 220.18 167.253C219.056 167.79 217.933 168.312 216.795 168.818C216.656 168.88 216.164 169.079 215.841 169.233C215.533 169.355 215.18 169.493 215.056 169.54C212.641 170.491 210.18 171.335 207.687 172.072C205.21 172.808 202.718 173.437 200.18 173.928C199.026 174.159 197.857 174.327 196.687 174.542C195.98 174.604 195.272 174.696 194.549 174.757C192.149 174.941 189.749 174.941 187.364 174.757C187.272 174.757 187.103 174.742 186.918 174.726C186.595 174.696 186.134 174.634 185.98 174.604C184.734 174.389 183.487 174.113 182.257 173.79C181.164 173.499 180.118 173.13 179.041 172.778C178.934 172.747 178.826 172.716 178.749 172.685C178.41 172.532 178.072 172.379 177.734 172.225C176.626 171.673 175.534 171.059 174.487 170.399C174.057 170.123 173.641 169.816 173.21 169.524C173.149 169.478 173.103 169.417 173.026 169.34C172.226 168.588 171.426 167.867 170.687 167.038C170.487 166.823 170.318 166.608 170.134 166.378C170.011 166.209 169.872 166.025 169.811 165.902C169.18 164.813 168.534 163.769 167.964 162.649C167.934 162.603 167.918 162.572 167.903 162.526C167.672 161.866 167.441 161.191 167.241 160.531C167.795 160.025 168.364 159.519 168.918 159.012C168.903 158.997 168.872 158.981 168.857 158.966C169.764 158.107 170.672 157.263 171.564 156.388C189.21 139.139 205.749 120.003 219.472 99.5002C225.672 90.2312 231.256 80.4712 236.072 70.4195C241.241 59.6312 245.441 48.5821 246.949 36.6582C248.441 24.7804 245.764 11.767 235.579 4.4009C226.579 -2.10582 213.78 -0.816754 204.687 4.78455C194.41 11.1225 186.703 22.1869 180.58 32.3307C174.395 42.5818 169.072 53.5235 164.364 64.5266C153.549 89.7402 146.334 116.964 144.718 144.418C144.564 146.996 144.534 149.59 144.657 152.152C144.257 152.475 143.872 152.782 143.472 153.104C143.411 153.15 143.38 153.181 143.334 153.211C142.826 153.595 142.318 153.979 141.811 154.347C139.503 156.05 137.165 157.692 134.765 159.273C130.288 162.204 125.657 164.874 120.842 167.222C119.718 167.759 118.595 168.281 117.457 168.788C117.318 168.849 116.826 169.048 116.503 169.202C116.195 169.325 115.842 169.463 115.718 169.509C113.303 170.46 110.842 171.304 108.349 172.041C105.872 172.778 103.38 173.407 100.842 173.898C99.6878 174.128 98.5186 174.297 97.3493 174.512C96.6416 174.573 95.934 174.665 95.2109 174.726C92.8109 174.911 90.4109 174.911 88.0263 174.726C87.934 174.726 87.7648 174.711 87.5801 174.696C87.2571 174.665 86.7955 174.604 86.6417 174.573C85.3955 174.358 84.1494 174.082 82.9186 173.76C81.8263 173.468 80.7802 173.1 79.7033 172.747C79.5956 172.716 79.4879 172.685 79.411 172.655C79.0725 172.501 78.734 172.348 78.411 172.194C77.3033 171.642 76.211 171.028 75.1648 170.368C74.734 170.092 74.3187 169.785 73.8725 169.493C73.8264 169.447 73.7648 169.386 73.6879 169.309C72.8879 168.557 72.0725 167.836 71.3341 167.007C71.1495 166.793 70.9648 166.578 70.7802 166.348C70.6572 166.179 70.5187 165.995 70.4572 165.872C69.8264 164.782 69.1802 163.739 68.611 162.618C68.5802 162.572 68.5648 162.542 68.5495 162.496C68.3187 161.82 68.0879 161.161 67.8725 160.47C69.3341 159.104 70.7956 157.738 72.211 156.357C89.8571 139.108 106.395 119.972 120.118 99.4695C126.318 90.2005 131.903 80.4405 136.718 70.3888C141.888 59.6006 146.088 48.5514 147.595 36.6276C149.088 24.7497 146.411 11.7363 136.226 4.3702C127.226 -2.13651 114.426 -0.847446 105.334 4.75385C95.057 11.0918 87.3494 22.1562 81.2263 32.3C75.0417 42.5511 69.7187 53.4928 65.011 64.4959C54.1957 89.7095 46.9803 116.933 45.365 144.387C45.2111 146.981 45.1803 149.574 45.3034 152.152C44.4265 152.889 43.5342 153.61 42.6419 154.316C42.5342 154.408 42.0727 154.761 41.7804 154.976C41.5034 155.176 41.1957 155.406 41.1034 155.483C39.0111 157.032 36.8573 158.521 34.6573 159.933C32.4881 161.314 30.2727 162.634 28.0112 163.846C26.9497 164.414 25.8881 164.951 24.8112 165.473C24.2727 165.734 23.7343 165.979 23.1958 166.225C22.9804 166.317 22.7804 166.409 22.5958 166.486C20.3651 167.345 18.1343 168.143 15.842 168.788C14.7343 169.094 13.6113 169.371 12.4728 169.616C11.9343 169.739 7.82667 170.414 10.6113 170.031C5.13438 170.752 -0.280982 174.373 0.011324 180.604C0.242092 185.714 4.73438 191.96 10.6113 191.177C25.642 189.182 38.965 182.814 50.9957 174.297C52.3342 176.752 53.9034 179.1 55.7957 181.31C63.8264 190.686 76.4417 195.045 88.4571 195.873C99.7955 196.656 111.765 193.725 122.226 189.52C129.903 186.435 137.18 182.691 144.118 178.302C144.103 178.348 144.088 178.394 144.057 178.44C146.195 177.12 148.288 175.739 150.334 174.281C151.672 176.737 153.241 179.085 155.134 181.295C163.164 190.671 175.78 195.029 187.795 195.858C199.133 196.641 211.103 193.71 221.564 189.505C229.164 186.451 236.395 182.737 243.272 178.41C243.272 178.41 243.272 178.425 243.272 178.44C245.41 177.12 247.502 175.739 249.549 174.281C250.887 176.737 252.456 179.085 254.349 181.295C262.379 190.671 274.995 195.029 287.01 195.858C298.348 196.641 310.318 193.71 320.779 189.505C332.056 184.978 342.517 179.023 352.21 171.703C393.486 140.505 419.809 94.6969 439.471 47.7841C441.917 41.9526 444.255 36.0597 446.502 30.1515C448.471 24.9646 444.317 18.3197 439.102 17.1381M290.472 102.447C290.733 102.109 291.333 101.342 290.472 102.447V102.447ZM324.456 24.1205C324.394 23.9517 324.318 23.7829 324.256 23.6295C324.379 23.8904 324.471 24.0745 324.456 24.1205ZM275.01 94.0524C276.81 88.3437 278.825 82.6963 281.056 77.1411C281.395 76.297 281.733 75.4683 282.087 74.6243C281.902 75.054 281.425 76.1282 282.287 74.1486C282.872 72.8135 283.456 71.4937 284.056 70.174C285.241 67.5805 286.472 65.0331 287.718 62.4703C292.471 52.6642 297.487 42.9041 303.933 34.0801C304.01 33.9727 304.287 33.6044 304.502 33.2975C304.733 33.0059 305.102 32.5302 305.195 32.4227C305.995 31.4406 306.81 30.4738 307.656 29.5223C309.502 27.4506 311.641 25.6705 313.533 23.6602C313.779 23.4914 314.025 23.3225 314.271 23.1537C314.994 22.6934 315.81 22.3404 316.533 21.8954C316.794 21.8033 317.071 21.6959 317.348 21.6191C317.764 21.4964 318.394 21.4196 318.979 21.3276C318.671 21.2815 318.718 21.0974 319.379 21.1127C319.548 21.1127 319.733 21.1127 319.918 21.1127C320.041 21.0667 320.164 21.0053 320.271 20.9439C320.164 21.0206 320.071 21.0513 319.964 21.1127C320.194 21.1127 320.425 21.0974 320.671 21.1127C320.764 21.1127 321.01 21.1281 321.256 21.1588C321.256 21.1588 321.271 21.1588 321.287 21.1588C321.579 21.2508 321.887 21.3429 322.179 21.4196C322.318 21.481 322.441 21.5578 322.564 21.6191C322.517 21.5731 322.471 21.5271 322.441 21.481C322.441 21.481 322.456 21.481 322.471 21.481C322.502 21.481 322.518 21.481 322.548 21.481C322.625 21.5424 322.702 21.6345 322.81 21.7266C322.933 21.7879 323.041 21.8493 323.133 21.8954C323.01 21.7573 322.948 21.6498 322.994 21.6498C323.025 21.6498 323.148 21.7726 323.287 21.9874C323.594 22.1716 323.533 22.1716 323.348 22.0795C323.379 22.1256 323.425 22.1869 323.456 22.2483C323.379 22.1716 323.302 22.0949 323.241 22.0181C323.164 21.9721 323.071 21.9261 322.964 21.8647C323.133 22.0335 323.302 22.1869 323.348 22.2176C323.425 22.279 323.487 22.3404 323.548 22.3864C323.748 22.7087 323.948 23.0617 324.117 23.3686C324.21 23.6141 324.302 23.8597 324.379 24.1205C324.533 24.6116 324.671 25.1027 324.794 25.5938C324.918 26.0848 325.01 26.5759 325.117 27.067C325.317 27.957 325.441 28.0798 325.456 27.911C325.702 29.5223 325.302 32.1926 325.225 33.2514C325.179 33.8806 324.964 35.6454 325.01 35.4919C324.825 36.5815 324.625 37.6711 324.394 38.7607C323.302 43.6867 321.702 48.49 319.825 53.1706C319.702 53.4928 319.564 53.8151 319.425 54.1374C319.333 54.3522 319.21 54.6438 319.148 54.7819C318.656 55.8715 318.179 56.9457 317.671 58.0353C316.579 60.3832 315.425 62.7158 314.225 65.0177C312.118 69.0844 309.902 73.1051 307.594 77.0797C304.595 82.2513 301.348 87.2848 297.933 92.1955C296.318 94.5128 294.671 96.784 292.995 99.0552C292.148 100.191 291.302 101.311 290.441 102.431C290.348 102.539 290.272 102.646 290.148 102.8C289.487 103.628 288.841 104.457 288.179 105.286C281.333 113.833 274.072 122.044 266.625 130.07C268.472 117.869 271.272 105.807 274.964 94.037M91.857 102.431C92.1186 102.094 92.734 101.326 91.857 102.431V102.431ZM125.903 24.2587C125.826 24.0898 125.765 23.921 125.703 23.7676C125.826 24.0285 125.918 24.2126 125.903 24.2587ZM76.4571 94.1752C78.2571 88.4664 80.2725 82.8191 82.5032 77.2638C82.8417 76.4198 83.1802 75.5911 83.534 74.7471C83.3494 75.1768 82.8725 76.251 83.734 74.2714C84.3186 72.9363 84.9032 71.6165 85.5032 70.2967C86.6878 67.7033 87.9186 65.1558 89.1648 62.593C93.9186 52.7869 98.9339 43.0268 105.38 34.2029C105.457 34.0955 105.734 33.7272 105.949 33.4202C106.18 33.1287 106.549 32.6529 106.642 32.5455C107.442 31.5634 108.257 30.5966 109.103 29.6451C110.949 27.5734 113.088 25.7933 114.98 23.7829C115.226 23.6141 115.472 23.4453 115.718 23.2765C116.442 22.8161 117.257 22.4632 117.98 22.0181C118.257 21.9261 118.518 21.8186 118.795 21.7419C119.211 21.6191 119.842 21.5424 120.426 21.4503C120.134 21.4043 120.165 21.2201 120.826 21.2355C120.995 21.2355 121.18 21.2355 121.349 21.2355C121.488 21.1894 121.595 21.1281 121.703 21.0667C121.595 21.1434 121.503 21.1741 121.395 21.2355C121.626 21.2355 121.872 21.2201 122.103 21.2355C122.195 21.2355 122.442 21.2508 122.688 21.2815C122.688 21.2815 122.703 21.2815 122.718 21.2815C123.011 21.3736 123.318 21.4657 123.611 21.5424C123.734 21.6038 123.872 21.6805 123.995 21.7419C123.934 21.6959 123.903 21.6498 123.872 21.6038C123.872 21.6038 123.888 21.6038 123.903 21.6038C123.934 21.6038 123.949 21.6038 123.98 21.6038C124.042 21.6652 124.134 21.7573 124.226 21.8493C124.349 21.9107 124.457 21.9721 124.549 22.0181C124.426 21.88 124.365 21.7726 124.411 21.7726C124.441 21.7726 124.565 21.8954 124.703 22.1102C125.026 22.2944 124.965 22.2944 124.765 22.2023C124.795 22.2483 124.841 22.3097 124.872 22.3711C124.795 22.2944 124.718 22.2176 124.657 22.1409C124.58 22.0949 124.488 22.0488 124.38 21.9874C124.549 22.1562 124.718 22.3097 124.765 22.3404C124.841 22.4018 124.903 22.4632 124.965 22.5092C125.165 22.8315 125.365 23.1844 125.534 23.4914C125.626 23.7369 125.718 23.9824 125.795 24.2433C125.949 24.7344 126.088 25.2255 126.211 25.7165C126.334 26.2076 126.426 26.6987 126.534 27.1897C126.734 28.0798 126.857 28.2026 126.872 28.0338C127.118 29.6451 126.718 32.3153 126.641 33.3742C126.611 34.0034 126.38 35.7682 126.426 35.6147C126.242 36.7043 126.041 37.7939 125.811 38.8834C124.734 43.8095 123.118 48.6128 121.242 53.2933C121.118 53.6156 120.98 53.9379 120.842 54.2601C120.749 54.475 120.626 54.7666 120.565 54.9047C120.072 55.9942 119.595 57.0685 119.088 58.158C117.995 60.506 116.842 62.8386 115.642 65.1405C113.534 69.2072 111.318 73.2278 109.011 77.2024C106.011 82.3741 102.765 87.4076 99.3493 92.3183C97.7493 94.6355 96.0878 96.9068 94.4109 99.178C93.5647 100.314 92.7186 101.434 91.857 102.554C91.7647 102.662 91.6878 102.769 91.5647 102.922C90.9186 103.751 90.2571 104.58 89.5955 105.408C82.7494 113.956 75.5033 122.166 68.0418 130.192C69.8879 117.992 72.6879 105.93 76.3802 94.1598M22.3343 166.685C22.0112 166.808 22.0728 166.793 22.3343 166.685V166.685ZM68.5033 162.526C67.7956 161.145 68.3033 162.051 68.5033 162.526V162.526ZM175.811 94.1752C177.61 88.4664 179.626 82.8191 181.857 77.2638C182.195 76.4198 182.534 75.5911 182.887 74.7471C182.703 75.1768 182.226 76.251 183.087 74.2714C183.672 72.9363 184.257 71.6165 184.857 70.2967C186.041 67.7033 187.272 65.1558 188.518 62.593C193.272 52.7869 198.287 43.0268 204.733 34.2029C204.81 34.0955 205.087 33.7272 205.303 33.4202C205.533 33.1287 205.903 32.6529 205.98 32.5455C206.78 31.5634 207.595 30.5966 208.441 29.6451C210.287 27.5734 212.426 25.7933 214.318 23.7829C214.564 23.6141 214.81 23.4453 215.056 23.2765C215.78 22.8161 216.595 22.4632 217.318 22.0181C217.595 21.9261 217.856 21.8186 218.133 21.7419C218.549 21.6191 219.18 21.5424 219.764 21.4503C219.472 21.4043 219.503 21.2201 220.164 21.2355C220.333 21.2355 220.518 21.2355 220.687 21.2355C220.826 21.1894 220.933 21.1281 221.041 21.0667C220.933 21.1434 220.841 21.1741 220.733 21.2355C220.964 21.2355 221.21 21.2201 221.441 21.2355C221.533 21.2355 221.78 21.2508 222.026 21.2815C222.026 21.2815 222.041 21.2815 222.056 21.2815C222.349 21.3736 222.656 21.4657 222.949 21.5424C223.072 21.6038 223.21 21.6805 223.333 21.7419C223.272 21.6959 223.241 21.6498 223.21 21.6038C223.21 21.6038 223.226 21.6038 223.241 21.6038C223.272 21.6038 223.287 21.6038 223.318 21.6038C223.38 21.6652 223.472 21.7573 223.564 21.8493C223.687 21.9107 223.795 21.9721 223.887 22.0181C223.764 21.88 223.703 21.7726 223.749 21.7726C223.78 21.7726 223.903 21.8954 224.041 22.1102C224.349 22.2944 224.287 22.2944 224.103 22.2023C224.133 22.2483 224.18 22.3097 224.21 22.3711C224.133 22.2944 224.056 22.2176 223.995 22.1409C223.918 22.0949 223.826 22.0488 223.718 21.9874C223.887 22.1562 224.056 22.3097 224.103 22.3404C224.179 22.4018 224.241 22.4632 224.303 22.5092C224.503 22.8315 224.703 23.1844 224.872 23.4914C224.964 23.7369 225.056 23.9824 225.133 24.2433C225.287 24.7344 225.426 25.2255 225.549 25.7165C225.672 26.2076 225.764 26.6987 225.872 27.1897C226.072 28.0798 226.195 28.2026 226.21 28.0338C226.456 29.6451 226.056 32.3153 225.979 33.3742C225.933 34.0034 225.718 35.7682 225.764 35.6147C225.579 36.7043 225.38 37.7939 225.149 38.8834C224.072 43.8095 222.456 48.6128 220.58 53.2933C220.456 53.6156 220.318 53.9379 220.18 54.2601C220.087 54.475 219.964 54.7666 219.903 54.9047C219.41 55.9942 218.933 57.0685 218.426 58.158C217.333 60.506 216.18 62.8386 214.98 65.1405C212.872 69.2072 210.656 73.2278 208.349 77.2024C205.349 82.3741 202.103 87.4076 198.687 92.3183C197.072 94.6355 195.426 96.9068 193.749 99.178C192.903 100.314 192.057 101.434 191.195 102.554C191.103 102.662 191.026 102.769 190.903 102.922C190.257 103.751 189.595 104.58 188.934 105.408C182.087 113.956 174.841 122.166 167.38 130.192C169.226 117.992 172.026 105.93 175.718 94.1598M266.979 162.511C266.272 161.13 266.779 162.035 266.979 162.511V162.511Z" fill="#F8F2E1"/>
</svg>
