<svg width="253" height="229" viewBox="0 0 253 229" fill="none" xmlns="http://www.w3.org/2000/svg">
<path d="M33.2416 108.291C24.4395 108.291 15.6373 108.356 6.8395 108.229C5.25721 108.207 3.1081 107.865 2.24802 106.82C0.965551 105.265 -0.14621 102.892 0.0157394 100.981C0.247721 98.2427 2.7645 96.7923 5.47606 96.7879C12.4924 96.777 19.5088 96.9413 26.5229 97.1516C40.177 97.5635 53.6013 96.227 66.6339 91.9437C68.7677 91.2426 70.838 90.2851 72.8471 89.2641C86.6916 82.218 89.8802 75.5114 86.4486 60.3411C82.7851 44.1476 74.8999 29.7004 67.5159 15.0515C66.8812 13.7917 66.2137 12.5254 65.7848 11.1911C64.8546 8.2924 65.8942 5.95463 68.4263 4.49106C71.0459 2.9771 73.613 3.61686 75.4645 5.87356C76.8783 7.59348 77.8981 9.65299 78.9968 11.6139C85.4988 23.2414 91.9571 34.8952 98.4679 46.5183C99.63 48.5931 100.895 50.6198 102.237 52.5829C110.093 64.0833 121.929 67.0608 134.366 60.6632C141.973 56.7501 147.692 50.7052 152.596 43.8825C158.945 35.0485 164.167 25.6361 166.636 14.8741C167.404 11.5241 168.55 8.25077 169.675 4.99498C171.048 1.02056 173.888 -0.686205 177.239 0.251531C180.298 1.1082 181.87 4.54584 180.859 8.47644C178.493 17.6676 175.676 26.7601 173.761 36.0432C171.402 47.4823 170.273 59.0835 170.973 70.8446C171.365 77.4263 174.313 81.335 180.541 83.3726C191.199 86.8606 202.19 87.9627 213.262 88.1073C223.725 88.2431 234.197 87.6538 244.669 87.4873C249.777 87.4062 252.591 90.5678 251.904 95.3331C251.442 98.5276 248.801 100.51 245.199 101.196C226.992 104.662 208.725 107.879 190.661 111.985C178.898 114.657 175.109 124.611 181.174 135.132C190.722 151.7 202.129 166.932 215.058 181.02C216.087 182.139 217.47 183.441 217.595 184.762C217.777 186.694 217.582 189.313 216.404 190.542C215.238 191.758 212.553 192.207 210.725 191.889C209.071 191.602 207.44 190.038 206.206 188.671C198.152 179.74 190.208 170.707 182.226 161.709C178.224 157.197 173.667 153.405 167.953 151.282C160.834 148.635 155.437 150.245 151.13 156.509C145.891 164.13 142.969 172.672 142.608 181.903C142.109 194.641 141.971 207.395 141.68 220.14C141.671 220.497 141.698 220.856 141.68 221.213C141.47 226.13 139.465 228.737 135.883 228.755C132.309 228.772 130.335 226.213 129.641 221.476C127.54 207.11 125.57 192.715 123.001 178.43C120.721 165.76 111.474 158.337 98.5029 158.451C86.0241 158.56 74.3156 161.958 63.535 168.279C61.5194 169.462 59.843 171.246 58.0681 172.817C51.5704 178.57 45.1055 184.361 38.6035 190.11C37.8988 190.732 37.0628 191.223 36.2465 191.703C33.0885 193.563 30.1712 193.263 28.2125 190.91C26.1859 188.478 26.2428 185.463 28.9215 182.924C35.7409 176.456 42.8229 170.267 49.6379 163.797C58.0878 155.775 66.7521 147.927 74.6263 139.365C81.9075 131.447 79.3469 119.337 69.9517 113.65C64.4979 110.348 58.3832 109.298 52.17 109.06C45.8715 108.816 39.5555 109.007 33.2482 109.007C33.2482 108.768 33.2482 108.532 33.2482 108.293M132.801 169.881C135.528 160.738 138.826 152.522 145.269 145.991C152.288 138.874 160.759 137.323 170.54 140.003C170.065 138.758 169.868 138.077 169.559 137.448C161.458 121.009 172.851 104.695 186.398 101.157C189.322 100.392 192.221 99.5288 194.377 98.9219C187.628 96.9041 180.248 95.0658 173.142 92.4717C165.754 89.7746 161.256 84.1482 160.381 76.23C159.742 70.4525 159.731 64.6069 159.468 58.7899C159.405 57.3724 159.459 55.9504 159.459 53.9172C151.43 63.3318 142.941 70.9126 131.385 73.9032C119.653 76.9399 108.798 75.1236 98.864 66.2326C100.937 86.5451 87.7968 94.873 72.9849 101.948C92.8019 116.211 95.183 128.467 82.0651 148.883C103.438 144.516 121.924 147.11 132.801 169.883" fill="#B384FA"/>
</svg>
