<svg width="137" height="137" viewBox="0 0 137 137" fill="none" xmlns="http://www.w3.org/2000/svg">
<g clip-path="url(#clip0_530_4494)">
<path d="M129.59 66.98C114.7 65.63 99.8199 64.29 84.9299 62.94C89.7399 58.93 94.5399 54.92 99.3499 50.92C106.33 45.1 113.32 39.27 120.3 33.45C123.02 31.18 122.82 26.22 120.3 23.91C117.41 21.25 113.66 21.49 110.76 23.91C99.2799 33.48 87.7999 43.06 76.3299 52.63C76.8899 46.4 77.4599 40.17 78.0199 33.94C78.8399 24.88 79.6599 15.82 80.4799 6.76996C80.7999 3.23996 77.1499 -0.130036 73.7299 0.0199638C69.7999 0.199964 67.3199 2.98996 66.9799 6.76996C65.6299 21.66 64.2899 36.54 62.9399 51.43C58.9299 46.62 54.9199 41.82 50.9199 37.01C45.0999 30.03 39.2699 23.04 33.4499 16.06C31.1799 13.34 26.2199 13.54 23.9099 16.06C21.2499 18.95 21.4899 22.7 23.9099 25.6C33.4799 37.08 43.0599 48.56 52.6299 60.03C46.3999 59.47 40.1699 58.9 33.9399 58.34C24.8799 57.52 15.8299 56.7 6.76993 55.88C3.22993 55.54 -0.15007 59.19 -6.95358e-05 62.61C0.17993 66.54 2.96993 69.02 6.74993 69.36C21.6399 70.71 36.5199 72.05 51.4099 73.4C46.6099 77.41 41.7999 81.42 36.9899 85.42C29.9999 91.25 23.0199 97.07 16.0399 102.9C13.3199 105.17 13.5199 110.13 16.0399 112.44C18.9299 115.1 22.6799 114.86 25.5799 112.44C37.0599 102.87 48.5399 93.29 60.0099 83.72C59.4499 89.95 58.8799 96.18 58.3199 102.41C57.4999 111.47 56.6799 120.53 55.8599 129.58C55.5399 133.11 59.1899 136.48 62.6099 136.33C66.5399 136.15 69.0099 133.36 69.3599 129.58C70.7099 114.69 72.0499 99.81 73.3999 84.92C77.4099 89.73 81.4199 94.53 85.4199 99.34C91.2499 106.33 97.0699 113.31 102.9 120.29C105.17 123.01 110.13 122.81 112.44 120.29C115.1 117.4 114.86 113.65 112.44 110.75C102.87 99.27 93.2899 87.79 83.7199 76.32C89.9499 76.88 96.1799 77.45 102.42 78.01C111.48 78.83 120.54 79.65 129.59 80.47C133.11 80.79 136.49 77.14 136.34 73.72C136.16 69.79 133.37 67.32 129.59 66.97V66.98Z" fill="#EEB943"/>
</g>
<defs>
<clipPath id="clip0_530_4494">
<rect width="136.34" height="136.34" fill="white"/>
</clipPath>
</defs>
</svg>
