<svg width="55" height="65" viewBox="0 0 55 65" fill="none" xmlns="http://www.w3.org/2000/svg">
<path d="M45.909 3.82808C46.2994 7.98712 43.5929 14.279 42.9249 16.819C41.5369 22.0736 41.3461 27.7935 43.6536 32.7669C44.816 35.2778 46.5162 37.4204 48.4594 39.2139C51.0011 41.5503 55.3558 44.4297 54.6358 48.928C54.1673 51.8752 51.695 52.5927 49.1794 52.0691C46.5336 51.5165 43.9138 50.7991 41.2767 50.1884C33.027 48.2882 26.4776 51.6814 21.0212 58.3804C19.9369 59.7183 18.974 61.1822 17.9157 62.5492C16.0159 65.0116 13.6477 65.7678 11.0973 64.1294C8.45154 62.4328 7.49732 59.6892 8.44287 56.3833C9.70938 51.9431 11.0279 47.5126 12.4332 43.1209C13.8559 38.6904 12.9277 35.2197 9.43179 32.5439C6.98552 30.6825 4.53057 28.8114 2.24044 26.7368C0.332001 25.0111 -0.839086 22.7425 0.731039 20.0183C2.19707 17.4783 4.26165 17.1584 6.74262 18.2733C18.679 23.6829 27.5967 20.5806 34.8227 8.49126C36.0892 6.37781 36.7572 3.69235 38.3013 1.9376C39.4116 0.677286 41.6931 -0.301887 43.1418 0.0859029C44.9721 0.57064 45.7529 1.99577 45.9264 3.82808M21.0125 30.828C21.7065 31.875 22.6087 33.5231 23.1552 35.7238C24.0574 39.3302 23.5109 42.3938 23.1552 43.848C24.4998 42.7234 26.5557 41.2789 29.2882 40.2416C31.6478 39.3496 33.747 39.0491 35.2911 38.9715C34.5104 37.401 33.5649 35.084 33.0184 32.1174C32.5239 29.4707 32.5152 27.1827 32.6193 25.5055C31.5957 26.6204 29.7653 28.317 27.0762 29.5095C24.5952 30.605 22.4005 30.8183 21.0125 30.828Z" fill="#02C76E"/>
</svg>
