<svg width="94" height="112" viewBox="0 0 94 112" fill="none" xmlns="http://www.w3.org/2000/svg">
<path d="M78.8713 6.59607C79.5419 13.7624 74.8922 24.6039 73.7446 28.9805C71.3601 38.0345 71.0323 47.8903 74.9965 56.4599C76.9935 60.7864 79.9145 64.4782 83.2528 67.5686C87.6194 71.5944 95.1008 76.5558 93.8638 84.3068C93.059 89.385 88.8117 90.6212 84.4898 89.7191C79.9443 88.767 75.4436 87.5308 70.913 86.4784C56.7402 83.2043 45.4883 89.0509 36.1143 100.594C34.2514 102.899 32.5971 105.422 30.779 107.777C27.5152 112.02 23.4466 113.323 19.0651 110.5C14.5197 107.577 12.8803 102.849 14.5048 97.1528C16.6806 89.502 18.9459 81.8679 21.3602 74.3006C23.8043 66.6665 22.2097 60.6862 16.2037 56.0757C12.0011 52.8684 7.78348 49.6443 3.84906 46.0695C0.570376 43.0961 -1.44154 39.1871 1.25592 34.4931C3.77454 30.1164 7.32148 29.5652 11.5838 31.4862C32.0904 40.8075 47.4108 35.462 59.8251 14.6311C62.001 10.9895 63.1485 6.36221 65.8013 3.33864C67.7089 1.16702 71.6284 -0.520175 74.1172 0.148017C77.2617 0.983257 78.603 3.43886 78.9011 6.59607M36.0994 53.1189C37.2916 54.9231 38.8415 57.7629 39.7804 61.5549C41.3304 67.769 40.3915 73.0477 39.7804 75.5535C42.0904 73.6157 45.6225 71.1267 50.3169 69.3393C54.3706 67.8025 57.9771 67.2846 60.6299 67.151C59.2886 64.4448 57.6642 60.4523 56.7253 55.3407C55.8758 50.7803 55.8609 46.8379 56.0397 43.948C54.2812 45.869 51.1366 48.7924 46.5166 50.8471C42.2544 52.7347 38.4839 53.1022 36.0994 53.1189Z" fill="#EEB943"/>
</svg>
