<svg width="20" height="18" viewBox="0 0 20 18" fill="none" xmlns="http://www.w3.org/2000/svg">
<path d="M19.2758 4.64453C19.0648 3.80078 18.3969 3.13281 17.5883 2.92188C16.0766 2.5 10.1 2.5 10.1 2.5C10.1 2.5 4.08828 2.5 2.57656 2.92188C1.76797 3.13281 1.1 3.80078 0.889063 4.64453C0.467188 6.12109 0.467188 9.28516 0.467188 9.28516C0.467188 9.28516 0.467188 12.4141 0.889063 13.9258C1.1 14.7695 1.76797 15.4023 2.57656 15.6133C4.08828 16 10.1 16 10.1 16C10.1 16 16.0766 16 17.5883 15.6133C18.3969 15.4023 19.0648 14.7695 19.2758 13.9258C19.6977 12.4141 19.6977 9.28516 19.6977 9.28516C19.6977 9.28516 19.6977 6.12109 19.2758 4.64453ZM8.13125 12.1328V6.4375L13.1234 9.28516L8.13125 12.1328Z" fill="white"/>
</svg>
